<svg width="39" height="38" viewBox="0 0 39 38" fill="none" xmlns="http://www.w3.org/2000/svg">
<path fill-rule="evenodd" clip-rule="evenodd" d="M2.43057 18.889C2.43057 23.2725 4.22311 27.4764 7.41386 30.576C10.6046 33.6756 14.9322 35.4169 19.4446 35.4169C23.957 35.4169 28.2846 33.6756 31.4753 30.576C34.666 27.4764 36.4586 23.2725 36.4586 18.889C36.4586 14.5055 34.666 10.3016 31.4753 7.20203C28.2846 4.10245 23.957 2.36113 19.4446 2.36113C14.9322 2.36113 10.6046 4.10245 7.41386 7.20203C4.22311 10.3016 2.43057 14.5055 2.43057 18.889ZM38.8892 18.889C38.8892 23.8987 36.8405 28.7032 33.194 32.2456C29.5474 35.788 24.6016 37.778 19.4446 37.778C14.2876 37.778 9.34175 35.788 5.69519 32.2456C2.04862 28.7032 0 23.8987 0 18.889C0 13.8793 2.04862 9.07484 5.69519 5.53247C9.34175 1.99009 14.2876 0 19.4446 0C24.6016 0 29.5474 1.99009 33.194 5.53247C36.8405 9.07484 38.8892 13.8793 38.8892 18.889ZM10.9376 17.7085C10.6153 17.7085 10.3061 17.8328 10.0782 18.0542C9.85033 18.2756 9.72229 18.5759 9.72229 18.889C9.72229 19.2021 9.85033 19.5024 10.0782 19.7238C10.3061 19.9452 10.6153 20.0696 10.9376 20.0696H25.0179L19.7994 25.1366C19.6864 25.2463 19.5968 25.3766 19.5357 25.52C19.4745 25.6635 19.443 25.8172 19.443 25.9724C19.443 26.1276 19.4745 26.2813 19.5357 26.4248C19.5968 26.5682 19.6864 26.6985 19.7994 26.8082C19.9124 26.918 20.0466 27.0051 20.1942 27.0645C20.3418 27.1239 20.5001 27.1545 20.6599 27.1545C20.8197 27.1545 20.9779 27.1239 21.1255 27.0645C21.2732 27.0051 21.4073 26.918 21.5203 26.8082L28.812 19.7249C28.9252 19.6152 29.015 19.4849 29.0762 19.3415C29.1375 19.1981 29.169 19.0443 29.169 18.889C29.169 18.7337 29.1375 18.58 29.0762 18.4365C29.015 18.2931 28.9252 18.1628 28.812 18.0532L21.5203 10.9698C21.4073 10.86 21.2732 10.773 21.1255 10.7136C20.9779 10.6542 20.8197 10.6236 20.6599 10.6236C20.5001 10.6236 20.3418 10.6542 20.1942 10.7136C20.0466 10.773 19.9124 10.86 19.7994 10.9698C19.6864 11.0796 19.5968 11.2099 19.5357 11.3533C19.4745 11.4967 19.443 11.6504 19.443 11.8056C19.443 11.9609 19.4745 12.1146 19.5357 12.258C19.5968 12.4014 19.6864 12.5317 19.7994 12.6415L25.0179 17.7085H10.9376Z" fill="black"/>
</svg>
