<svg width="36" height="41" viewBox="0 0 36 41" fill="none" xmlns="http://www.w3.org/2000/svg">
<path d="M17.9375 2.5625C19.6365 2.5625 21.266 3.23744 22.4674 4.43885C23.6688 5.64025 24.3438 7.26971 24.3438 8.96875V10.25H11.5312V8.96875C11.5312 7.26971 12.2062 5.64025 13.4076 4.43885C14.609 3.23744 16.2385 2.5625 17.9375 2.5625ZM26.9062 10.25V8.96875C26.9062 6.59009 25.9613 4.30885 24.2794 2.62689C22.5974 0.944919 20.3162 0 17.9375 0C15.5588 0 13.2776 0.944919 11.5956 2.62689C9.91367 4.30885 8.96875 6.59009 8.96875 8.96875V10.25H0V35.875C0 37.2342 0.539954 38.5378 1.50108 39.4989C2.4622 40.46 3.76577 41 5.125 41H30.75C32.1092 41 33.4128 40.46 34.3739 39.4989C35.335 38.5378 35.875 37.2342 35.875 35.875V10.25H26.9062ZM2.5625 12.8125H33.3125V35.875C33.3125 36.5546 33.0425 37.2064 32.562 37.687C32.0814 38.1675 31.4296 38.4375 30.75 38.4375H5.125C4.44538 38.4375 3.7936 38.1675 3.31304 37.687C2.83248 37.2064 2.5625 36.5546 2.5625 35.875V12.8125Z" fill="#1E2032"/>
</svg>
