<svg width="72" height="72" viewBox="0 0 72 72" fill="none" xmlns="http://www.w3.org/2000/svg">
<circle cx="36" cy="36" r="34" stroke="#1E2032" stroke-width="4"/>
<path d="M37.448 31.184C37.1067 32.4213 36.4667 33.392 35.528 34.096C34.5893 34.7787 33.4053 35.2053 31.976 35.376C33 35.4613 33.768 35.76 34.28 36.272C34.792 36.784 35.048 37.456 35.048 38.288C35.048 38.608 34.9947 39.0027 34.888 39.472L34.536 41.04C34.4933 41.2533 34.472 41.4027 34.472 41.488C34.472 41.7653 34.536 41.9787 34.664 42.128C34.792 42.256 34.9733 42.32 35.208 42.32C35.656 42.32 35.976 42.384 36.168 42.512C36.3813 42.64 36.456 42.8747 36.392 43.216C36.3067 43.7067 36.0507 44.1867 35.624 44.656C35.1973 45.1253 34.5893 45.52 33.8 45.84C33.032 46.1387 32.0933 46.288 30.984 46.288C29.576 46.288 28.456 45.9787 27.624 45.36C26.792 44.72 26.376 43.8133 26.376 42.64C26.376 42.192 26.44 41.712 26.568 41.2L27.08 39.152C27.1653 38.8747 27.208 38.5867 27.208 38.288C27.208 37.7973 27.0373 37.4453 26.696 37.232C26.376 37.0187 25.8533 36.912 25.128 36.912H23.912L22.44 42.224C22.3973 42.352 22.376 42.512 22.376 42.704C22.376 43.0027 22.4507 43.2587 22.6 43.472C22.7493 43.6853 22.952 43.9093 23.208 44.144C23.4 44.2933 23.5493 44.4427 23.656 44.592C23.7627 44.72 23.816 44.8587 23.816 45.008C23.816 45.3707 23.6453 45.6267 23.304 45.776C22.9627 45.9253 22.4613 46 21.8 46H13.768C13.2133 46 12.7973 45.904 12.52 45.712C12.2427 45.4987 12.1467 45.2107 12.232 44.848C12.2747 44.656 12.36 44.5067 12.488 44.4C12.5947 44.272 12.7653 44.1333 13 43.984C13.3627 43.7707 13.6507 43.5467 13.864 43.312C14.0773 43.0773 14.248 42.7147 14.376 42.224L18.28 28.432C18.3653 28.1547 18.408 27.888 18.408 27.632C18.408 27.3973 18.3653 27.2053 18.28 27.056C18.216 26.8853 18.12 26.6933 17.992 26.48C17.8 26.2027 17.704 25.9787 17.704 25.808C17.704 25.744 17.7253 25.6267 17.768 25.456C17.8533 25.1787 18.0347 24.9867 18.312 24.88C18.6107 24.752 19.0587 24.688 19.656 24.688H30.376C31.848 24.688 33.128 24.912 34.216 25.36C35.3253 25.808 36.168 26.4267 36.744 27.216C37.3413 27.984 37.64 28.8587 37.64 29.84C37.64 30.288 37.576 30.736 37.448 31.184ZM29.256 30.864C29.3627 30.3733 29.416 30 29.416 29.744C29.416 28.6133 28.7973 28.048 27.56 28.048H26.216L24.808 33.712H26.152C26.984 33.712 27.6347 33.5093 28.104 33.104C28.5947 32.6987 28.9787 31.952 29.256 30.864ZM55.6173 37.744C56.2146 37.744 56.6626 37.872 56.9613 38.128C57.2813 38.3627 57.4413 38.704 57.4413 39.152C57.4413 39.344 57.4093 39.5573 57.3453 39.792L56.2893 43.536C56.0119 44.4533 55.6173 45.0933 55.1053 45.456C54.6146 45.8187 53.8786 46 52.8973 46H37.8573C37.4093 46 37.0679 45.9253 36.8332 45.776C36.5772 45.6267 36.4492 45.424 36.4492 45.168C36.4492 45.04 36.4812 44.9013 36.5452 44.752C36.6092 44.5813 36.7159 44.4427 36.8652 44.336C37.0146 44.208 37.1746 44.0907 37.3453 43.984C37.6866 43.7707 37.9639 43.5573 38.1773 43.344C38.3906 43.1093 38.5719 42.736 38.7213 42.224L42.6253 28.432C42.7106 28.1547 42.7533 27.888 42.7533 27.632C42.7533 27.3973 42.7106 27.2053 42.6253 27.056C42.5613 26.8853 42.4653 26.6933 42.3373 26.48C42.1453 26.2027 42.0493 25.9787 42.0493 25.808C42.0493 25.744 42.0706 25.6267 42.1133 25.456C42.1986 25.1787 42.3799 24.9867 42.6573 24.88C42.9559 24.752 43.4039 24.688 44.0013 24.688H51.5213C51.9693 24.688 52.3106 24.7627 52.5453 24.912C52.8013 25.04 52.9293 25.232 52.9293 25.488C52.9293 25.5947 52.8973 25.7333 52.8333 25.904C52.7693 26.0533 52.6733 26.192 52.5453 26.32C52.4386 26.4267 52.3319 26.512 52.2253 26.576C52.1399 26.6187 52.0759 26.6613 52.0333 26.704C51.6919 26.896 51.4146 27.1093 51.2013 27.344C50.9879 27.5787 50.8066 27.9413 50.6573 28.432L46.5293 42.928H48.5133C49.0039 42.928 49.4199 42.8427 49.7613 42.672C50.1239 42.5013 50.4973 42.1813 50.8813 41.712L53.0893 39.088C53.4946 38.6187 53.8786 38.2773 54.2413 38.064C54.6253 37.8507 55.0839 37.744 55.6173 37.744Z" fill="#1E2032"/>
</svg>
