<svg width="336" height="57" viewBox="0 0 336 57" fill="none" xmlns="http://www.w3.org/2000/svg">
<path d="M47.84 17.22L46.8784 16.9453L46.876 16.9541L47.84 17.22ZM44.24 22.68L44.8282 23.4887L44.8341 23.4844L44.84 23.48L44.24 22.68ZM37.58 25.08L37.4614 24.0871L37.497 26.0765L37.58 25.08ZM41.9 26.76L42.6071 26.0529V26.0529L41.9 26.76ZM43.04 32.76L42.0649 32.5384L42.0643 32.541L43.04 32.76ZM42.38 35.7L41.4043 35.481L41.4017 35.4924L41.3994 35.5039L42.38 35.7ZM42.62 37.74L41.8607 38.3908L41.8857 38.42L41.9129 38.4471L42.62 37.74ZM45.44 38.46L44.8853 39.292L44.9051 39.3053L44.9255 39.3175L45.44 38.46ZM45.86 39.78L44.877 39.5957L44.8748 39.6087L45.86 39.78ZM44.42 42.48L43.6801 41.8073V41.8073L44.42 42.48ZM41 44.7L41.3624 45.632L41.3691 45.6294L41.3757 45.6267L41 44.7ZM29.42 43.8L28.8103 44.5926L28.8168 44.5976L28.8233 44.6025L29.42 43.8ZM27.44 36L28.4101 36.2425V36.2425L27.44 36ZM28.4 32.16L27.4442 31.8659L27.4364 31.8915L27.4299 31.9175L28.4 32.16ZM27.68 28.56L27.1253 29.392L27.1375 29.4002L27.15 29.408L27.68 28.56ZM22.46 27.96V26.96H21.6994L21.4963 27.693L22.46 27.96ZM19.7 37.92L20.6487 38.2362L20.6568 38.2118L20.6637 38.187L19.7 37.92ZM21.14 41.52L20.4643 42.2572L20.4941 42.2845L20.5261 42.3094L21.14 41.52ZM21.98 42.36L21.1663 42.9412L21.1879 42.9716L21.2118 43.0002L21.98 42.36ZM1.1 44.46L0.490289 45.2526L0.510169 45.2679L0.53079 45.2822L1.1 44.46ZM0.56 42.84L1.53349 43.0691L1.53619 43.0569L0.56 42.84ZM1.04 42L1.68018 42.7682L1.75002 42.71L1.80822 42.6402L1.04 42ZM2 41.22L1.49298 40.3581L1.47789 40.3669L1.46312 40.3763L2 41.22ZM4.58 37.92L3.61781 37.6476L3.61499 37.6576L3.61238 37.6676L4.58 37.92ZM11.9 12.06L10.9442 11.7659L10.9409 11.7767L10.9378 11.7876L11.9 12.06ZM11.9 9.48L10.9637 9.83112L10.9919 9.90637L11.0318 9.97614L11.9 9.48ZM11.36 8.4L12.2175 7.8855L12.2007 7.85757L12.1822 7.83079L11.36 8.4ZM10.94 6.48L9.98422 6.18591L9.97635 6.2115L9.96986 6.23746L10.94 6.48ZM11.96 5.4L12.319 6.33334L12.3366 6.32657L12.3539 6.31914L11.96 5.4ZM41.78 6.3L41.3992 7.2247L41.4055 7.22724L41.78 6.3ZM46.52 9.78L45.7122 10.3695L45.7212 10.3818L45.7307 10.3939L46.52 9.78ZM32.48 16.62L33.449 16.867L33.4534 16.8498L33.4572 16.8324L32.48 16.62ZM26.78 11.34V10.34H25.9982L25.8095 11.0988L26.78 11.34ZM24.14 21.96L23.1695 21.7188L22.861 22.96H24.14V21.96ZM30.32 20.82L29.6831 20.049L29.6747 20.056L29.6664 20.0632L30.32 20.82ZM46.876 16.9541C46.289 19.0819 45.206 20.7055 43.64 21.88L44.84 23.48C46.794 22.0145 48.111 19.9981 48.804 17.4859L46.876 16.9541ZM43.6518 21.8713C42.0595 23.0293 40.012 23.7825 37.4614 24.0871L37.6986 26.0729C40.508 25.7375 42.9005 24.8907 44.8282 23.4887L43.6518 21.8713ZM37.497 26.0765C39.2786 26.225 40.4582 26.7324 41.1929 27.4671L42.6071 26.0529C41.4218 24.8676 39.7214 24.255 37.663 24.0835L37.497 26.0765ZM41.1929 27.4671C41.9371 28.2113 42.34 29.2023 42.34 30.54H44.34C44.34 28.7577 43.7829 27.2287 42.6071 26.0529L41.1929 27.4671ZM42.34 30.54C42.34 31.0382 42.2557 31.6986 42.0649 32.5384L44.0151 32.9816C44.2243 32.0614 44.34 31.2418 44.34 30.54H42.34ZM42.0643 32.541L41.4043 35.481L43.3557 35.919L44.0157 32.979L42.0643 32.541ZM41.3994 35.5039C41.3203 35.8993 41.26 36.2689 41.26 36.54H43.26C43.26 36.5404 43.26 36.5363 43.2605 36.5269C43.261 36.5177 43.2619 36.5049 43.2634 36.488C43.2665 36.454 43.2717 36.4089 43.2799 36.3514C43.2965 36.2358 43.3228 36.0851 43.3606 35.8961L41.3994 35.5039ZM41.26 36.54C41.26 37.2018 41.4122 37.8675 41.8607 38.3908L43.3793 37.0892C43.3478 37.0525 43.26 36.9182 43.26 36.54H41.26ZM41.9129 38.4471C42.3914 38.9256 43.0168 39.1 43.64 39.1V37.1C43.3832 37.1 43.3286 37.0344 43.3271 37.0329L41.9129 38.4471ZM43.64 39.1C44.4384 39.1 44.7835 39.2242 44.8853 39.292L45.9947 37.6279C45.3765 37.2158 44.5216 37.1 43.64 37.1V39.1ZM44.9255 39.3175C44.9303 39.3203 44.9207 39.3152 44.9081 39.2994C44.8955 39.2834 44.8915 39.2714 44.8921 39.2732C44.8956 39.2843 44.9184 39.3754 44.8771 39.5957L46.8429 39.9643C46.9216 39.5446 46.9344 39.0957 46.7979 38.6668C46.6533 38.2122 46.3609 37.8463 45.9545 37.6025L44.9255 39.3175ZM44.8748 39.6087C44.7551 40.2967 44.387 41.0297 43.6801 41.8073L45.1599 43.1527C46.053 42.1703 46.6449 41.1033 46.8452 39.9513L44.8748 39.6087ZM43.6801 41.8073C43.0093 42.5452 42.0107 43.2112 40.6243 43.7733L41.3757 45.6267C42.9493 44.9888 44.2307 44.1748 45.1599 43.1527L43.6801 41.8073ZM40.6376 43.768C39.3455 44.2705 37.7163 44.54 35.72 44.54V46.54C37.8837 46.54 39.7745 46.2495 41.3624 45.632L40.6376 43.768ZM35.72 44.54C33.2191 44.54 31.3519 43.9904 30.0167 42.9975L28.8233 44.6025C30.6081 45.9296 32.9409 46.54 35.72 46.54V44.54ZM30.0297 43.0074C28.7472 42.0208 28.08 40.6314 28.08 38.7H26.08C26.08 41.1686 26.9728 43.1792 28.8103 44.5926L30.0297 43.0074ZM28.08 38.7C28.08 37.9547 28.1866 37.1369 28.4101 36.2425L26.4699 35.7575C26.2134 36.7831 26.08 37.7653 26.08 38.7H28.08ZM28.4101 36.2425L29.3701 32.4025L27.4299 31.9175L26.4699 35.7575L28.4101 36.2425ZM29.3558 32.4541C29.546 31.836 29.64 31.1967 29.64 30.54H27.64C27.64 31.0033 27.5741 31.444 27.4442 31.8659L29.3558 32.4541ZM29.64 30.54C29.64 29.3626 29.2095 28.3367 28.21 27.712L27.15 29.408C27.4305 29.5833 27.64 29.8774 27.64 30.54H29.64ZM28.2347 27.7279C27.3796 27.1579 26.1487 26.96 24.74 26.96V28.96C26.0513 28.96 26.7804 29.1621 27.1253 29.392L28.2347 27.7279ZM24.74 26.96H22.46V28.96H24.74V26.96ZM21.4963 27.693L18.7363 37.653L20.6637 38.187L23.4237 28.227L21.4963 27.693ZM18.7513 37.6038C18.6263 37.9789 18.58 38.3941 18.58 38.82H20.58C20.58 38.5259 20.6137 38.3411 20.6487 38.2362L18.7513 37.6038ZM18.58 38.82C18.58 39.554 18.7664 40.2415 19.1808 40.8335L20.8192 39.6865C20.6736 39.4785 20.58 39.206 20.58 38.82H18.58ZM19.1808 40.8335C19.5137 41.3091 19.9472 41.7832 20.4643 42.2572L21.8157 40.7828C21.3728 40.3768 21.0463 40.0109 20.8192 39.6865L19.1808 40.8335ZM20.5261 42.3094C20.833 42.5481 21.0373 42.7607 21.1663 42.9412L22.7937 41.7788C22.5227 41.3993 22.167 41.0519 21.7539 40.7306L20.5261 42.3094ZM21.2118 43.0002C21.2805 43.0826 21.28 43.1213 21.28 43.14H23.28C23.28 42.5987 23.0795 42.1174 22.7482 41.7198L21.2118 43.0002ZM21.28 43.14C21.28 43.3186 21.24 43.4072 21.208 43.4553C21.1747 43.5052 21.1011 43.5843 20.9192 43.6638L21.7208 45.4962C22.1789 45.2957 22.5853 44.9948 22.8721 44.5647C23.16 44.1328 23.28 43.6414 23.28 43.14H21.28ZM20.9192 43.6638C20.4682 43.8611 19.6926 44 18.5 44V46C19.7874 46 20.8918 45.8589 21.7208 45.4962L20.9192 43.6638ZM18.5 44H3.44V46H18.5V44ZM3.44 44C2.48448 44 1.94541 43.829 1.66921 43.6378L0.53079 45.2822C1.29459 45.811 2.31552 46 3.44 46V44ZM1.70971 43.6674C1.58285 43.5698 1.54146 43.4921 1.52368 43.4388C1.50437 43.3808 1.48624 43.2695 1.53342 43.069L-0.413417 42.611C-0.526242 43.0905 -0.534366 43.5892 -0.373683 44.0712C-0.211464 44.5579 0.0971471 44.9502 0.490289 45.2526L1.70971 43.6674ZM1.53619 43.0569C1.5772 42.8724 1.63933 42.8023 1.68018 42.7682L0.399816 41.2318C-0.0393274 41.5977 -0.297197 42.0876 -0.416187 42.6231L1.53619 43.0569ZM1.80822 42.6402C1.91256 42.515 2.13399 42.32 2.53688 42.0637L1.46312 40.3763C0.986012 40.68 0.567439 41.005 0.271779 41.3598L1.80822 42.6402ZM2.50702 42.0819C3.24723 41.6465 3.87429 41.1669 4.35994 40.6327L2.88006 39.2873C2.56571 39.6331 2.11277 39.9935 1.49298 40.3581L2.50702 42.0819ZM4.35994 40.6327C4.91497 40.0221 5.2887 39.165 5.54762 38.1724L3.61238 37.6676C3.3913 38.515 3.12503 39.0179 2.88006 39.2873L4.35994 40.6327ZM5.5422 38.1924L12.8622 12.3324L10.9378 11.7876L3.61781 37.6476L5.5422 38.1924ZM12.8558 12.3541C13.0412 11.7513 13.14 11.152 13.14 10.56H11.14C11.14 10.928 11.0788 11.3287 10.9442 11.7659L12.8558 12.3541ZM13.14 10.56C13.14 10.0067 13.0404 9.46016 12.7682 8.98386L11.0318 9.97614C11.0796 10.0598 11.14 10.2333 11.14 10.56H13.14ZM12.8363 9.12888C12.689 8.73589 12.4782 8.32008 12.2175 7.8855L10.5025 8.91449C10.7218 9.27992 10.871 9.58411 10.9637 9.83112L12.8363 9.12888ZM12.1822 7.83079C12.0269 7.60652 11.9299 7.43119 11.8741 7.30108C11.8164 7.16634 11.82 7.11969 11.82 7.14H9.82C9.82 7.78251 10.1563 8.4182 10.5378 8.96921L12.1822 7.83079ZM11.82 7.14C11.82 7.17089 11.8171 7.15606 11.8339 7.06389C11.8486 6.98266 11.8732 6.87034 11.9101 6.72253L9.96986 6.23746C9.89306 6.54465 9.82 6.87917 9.82 7.14H11.82ZM11.8958 6.77409C11.963 6.55561 12.0774 6.42624 12.319 6.33334L11.601 4.46665C10.8026 4.77376 10.237 5.36439 9.98422 6.18591L11.8958 6.77409ZM12.3539 6.31914C12.7249 6.16015 13.4009 6.04 14.48 6.04V4.04C13.3191 4.04 12.3151 4.15985 11.5661 4.48085L12.3539 6.31914ZM14.48 6.04H34.58V4.04H14.48V6.04ZM34.58 6.04C37.241 6.04 39.5062 6.44519 41.3993 7.22468L42.1608 5.37532C39.9738 4.47481 37.439 4.04 34.58 4.04V6.04ZM41.4055 7.22724C43.3513 8.01303 44.7646 9.07095 45.7122 10.3695L47.3278 9.19053C46.1154 7.52905 44.3687 6.26697 42.1545 5.37276L41.4055 7.22724ZM45.7307 10.3939C46.7129 11.6568 47.2 13.0803 47.2 14.7H49.2C49.2 12.6397 48.5672 10.7832 47.3094 9.16606L45.7307 10.3939ZM47.2 14.7C47.2 15.4434 47.094 16.191 46.8785 16.9453L48.8015 17.4947C49.066 16.569 49.2 15.6366 49.2 14.7H47.2ZM33.4572 16.8324C33.6608 15.8957 33.78 15.1106 33.78 14.52H31.78C31.78 14.8894 31.6992 15.5043 31.5028 16.4076L33.4572 16.8324ZM33.78 14.52C33.78 13.2815 33.437 12.1757 32.5846 11.3968C31.7492 10.6334 30.5929 10.34 29.3 10.34V12.34C30.3271 12.34 30.9108 12.5765 31.2354 12.8732C31.543 13.1543 31.78 13.6385 31.78 14.52H33.78ZM29.3 10.34H26.78V12.34H29.3V10.34ZM25.8095 11.0988L23.1695 21.7188L25.1105 22.2012L27.7505 11.5812L25.8095 11.0988ZM24.14 22.96H26.66V20.96H24.14V22.96ZM26.66 22.96C28.3773 22.96 29.8579 22.5404 30.9736 21.5768L29.6664 20.0632C29.0221 20.6196 28.0627 20.96 26.66 20.96V22.96ZM30.9569 21.591C32.1241 20.6268 32.9121 18.9735 33.449 16.867L31.511 16.373C31.0079 18.3465 30.3559 19.4932 29.6831 20.049L30.9569 21.591ZM73.8073 20.82L72.8587 20.5038L72.855 20.5148L72.8516 20.5259L73.8073 20.82ZM68.2873 38.76L67.3316 38.4659L67.3237 38.4915L67.3172 38.5175L68.2873 38.76ZM68.4073 41.28L67.5593 41.81L67.5757 41.8361L67.5936 41.8612L68.4073 41.28ZM69.2473 42.12L69.9545 41.4129L69.9104 41.3689L69.8613 41.3306L69.2473 42.12ZM69.8473 42.84L68.9899 43.3545L69.0164 43.3987L69.0473 43.44L69.8473 42.84ZM69.9073 43.5L70.8407 43.859L70.8567 43.8175L70.8689 43.7747L69.9073 43.5ZM68.7073 44.64L69.0787 45.5685L68.7073 44.64ZM49.9873 44.52L49.3873 45.32L49.4095 45.3367L49.4326 45.3521L49.9873 44.52ZM49.5073 43.14L48.5587 42.8238L48.5518 42.8444L48.5458 42.8653L49.5073 43.14ZM50.7673 41.88L51.2352 42.7638L51.2379 42.7624L50.7673 41.88ZM52.2673 40.74L51.5274 40.0673L52.2673 40.74ZM53.2873 38.64L52.3298 38.3517L52.3273 38.36L53.2873 38.64ZM58.5073 21.3L57.5587 20.9838L57.554 20.9977L57.5498 21.0117L58.5073 21.3ZM58.3873 19.38L57.5736 19.9612L57.5953 19.9916L57.6191 20.0202L58.3873 19.38ZM57.4873 18.54L56.8626 19.3209L56.8876 19.3409L56.9139 19.3592L57.4873 18.54ZM56.6473 17.7L55.8153 18.2547L55.8153 18.2547L56.6473 17.7ZM56.5873 16.74L57.5452 17.0273L57.5504 17.01L57.555 16.9924L56.5873 16.74ZM60.3673 14.34L60.6531 15.2983L60.6608 15.296L60.6685 15.2936L60.3673 14.34ZM75.4273 1.56L74.7202 2.2671L74.7272 2.27404L74.7342 2.28083L75.4273 1.56ZM76.1473 8.34L75.2748 7.8514L75.2673 7.86491L75.2601 7.87865L76.1473 8.34ZM73.8673 10.8L74.3974 11.648L74.4064 11.6423L73.8673 10.8ZM66.7873 10.2L66.0665 10.8931L66.0801 10.9072L66.0942 10.9208L66.7873 10.2ZM65.2273 6.36H64.2273V6.37315L64.2277 6.3863L65.2273 6.36ZM66.0073 3.42L66.8866 3.89628L66.8907 3.88885L66.8946 3.88135L66.0073 3.42ZM68.2273 0.959998L68.782 1.79205V1.79205L68.2273 0.959998ZM67.5073 14.26C69.738 14.26 71.1591 14.6899 71.9757 15.3552L73.239 13.8048C71.8956 12.7101 69.9167 12.26 67.5073 12.26V14.26ZM71.9757 15.3552C72.7994 16.0265 73.2273 16.9294 73.2273 18.18H75.2273C75.2273 16.3906 74.5752 14.8935 73.239 13.8048L71.9757 15.3552ZM73.2273 18.18C73.2273 18.9968 73.1034 19.7697 72.8587 20.5038L74.756 21.1362C75.0713 20.1903 75.2273 19.2032 75.2273 18.18H73.2273ZM72.8516 20.5259L67.3316 38.4659L69.2431 39.0541L74.7631 21.1141L72.8516 20.5259ZM67.3172 38.5175C67.1842 39.0495 67.1073 39.5542 67.1073 40.02H69.1073C69.1073 39.7658 69.1505 39.4305 69.2575 39.0025L67.3172 38.5175ZM67.1073 40.02C67.1073 40.6592 67.2292 41.2818 67.5593 41.81L69.2553 40.75C69.1855 40.6382 69.1073 40.4208 69.1073 40.02H67.1073ZM67.5936 41.8612C67.8647 42.2407 68.2203 42.5881 68.6334 42.9094L69.8613 41.3306C69.5544 41.0919 69.35 40.8793 69.2211 40.6988L67.5936 41.8612ZM68.5402 42.8271C68.7966 43.0834 68.9311 43.2565 68.9899 43.3545L70.7048 42.3255C70.5236 42.0235 70.2581 41.7166 69.9545 41.4129L68.5402 42.8271ZM69.0473 43.44C68.9846 43.3564 68.9614 43.2703 68.9565 43.2155C68.9524 43.1705 68.9621 43.1682 68.9458 43.2253L70.8689 43.7747C70.9938 43.3375 71.0294 42.7495 70.6473 42.24L69.0473 43.44ZM68.974 43.141C68.8902 43.359 68.7228 43.5568 68.336 43.7115L69.0787 45.5685C69.8919 45.2432 70.5245 44.681 70.8407 43.859L68.974 43.141ZM68.336 43.7115C67.9184 43.8786 67.1552 44 65.9473 44V46C67.2195 46 68.2963 45.8814 69.0787 45.5685L68.336 43.7115ZM65.9473 44H52.2673V46H65.9473V44ZM52.2673 44C51.2872 44 50.7719 43.8412 50.542 43.688L49.4326 45.3521C50.1627 45.8388 51.1675 46 52.2673 46V44ZM50.5873 43.72C50.4693 43.6315 50.4527 43.579 50.4518 43.5765C50.4503 43.572 50.4473 43.5622 50.4473 43.5413C50.4473 43.5188 50.4508 43.4778 50.4689 43.4147L48.5458 42.8653C48.4206 43.3037 48.4028 43.7734 48.5628 44.2335C48.722 44.691 49.0254 45.0485 49.3873 45.32L50.5873 43.72ZM50.456 43.4562C50.5011 43.321 50.667 43.0646 51.2352 42.7638L50.2995 40.9962C49.5077 41.4154 48.8336 41.999 48.5587 42.8238L50.456 43.4562ZM51.2379 42.7624C51.9248 42.396 52.52 41.9487 53.0073 41.4127L51.5274 40.0673C51.2147 40.4113 50.8099 40.724 50.2968 40.9976L51.2379 42.7624ZM53.0073 41.4127C53.5566 40.8084 53.9501 39.9391 54.2473 38.92L52.3273 38.36C52.0646 39.2609 51.7781 39.7916 51.5274 40.0673L53.0073 41.4127ZM54.2449 38.9283L59.4649 21.5883L57.5498 21.0117L52.3298 38.3517L54.2449 38.9283ZM59.456 21.6162C59.5927 21.2063 59.6873 20.7913 59.6873 20.4H57.6873C57.6873 20.4887 57.662 20.6737 57.5587 20.9838L59.456 21.6162ZM59.6873 20.4C59.6873 19.8203 59.5562 19.2206 59.1556 18.7398L57.6191 20.0202C57.6206 20.0219 57.6364 20.0407 57.653 20.0972C57.6704 20.1566 57.6873 20.2535 57.6873 20.4H59.6873ZM59.2011 18.7988C58.9137 18.3965 58.5181 18.0408 58.0608 17.7208L56.9139 19.3592C57.2566 19.5992 57.4609 19.8035 57.5736 19.9612L59.2011 18.7988ZM58.112 17.7591C57.7403 17.4618 57.5544 17.2578 57.4794 17.1453L55.8153 18.2547C56.0603 18.6222 56.4344 18.9782 56.8626 19.3209L58.112 17.7591ZM57.4794 17.1453C57.4917 17.1638 57.5004 17.1827 57.5056 17.199C57.5107 17.2147 57.5107 17.2222 57.5104 17.2176C57.5096 17.2053 57.5094 17.1465 57.5452 17.0273L55.6295 16.4527C55.4635 17.006 55.4263 17.6712 55.8153 18.2547L57.4794 17.1453ZM57.555 16.9924C57.5831 16.8844 57.7151 16.6328 58.2484 16.2942C58.7686 15.9639 59.5557 15.6256 60.6531 15.2983L60.0815 13.3817C58.899 13.7344 57.9161 14.1361 57.1763 14.6058C56.4496 15.0672 55.8315 15.6756 55.6197 16.4876L57.555 16.9924ZM60.6685 15.2936C62.8475 14.6055 65.1257 14.26 67.5073 14.26V12.26C64.929 12.26 62.4472 12.6345 60.0662 13.3864L60.6685 15.2936ZM71.5273 0.999996C72.84 0.999996 73.88 1.4269 74.7202 2.2671L76.1345 0.852891C74.8947 -0.386905 73.3347 -1 71.5273 -1V0.999996ZM74.7342 2.28083C75.5725 3.08688 75.9873 4.06411 75.9873 5.28H77.9873C77.9873 3.53589 77.3622 2.03311 76.1205 0.839164L74.7342 2.28083ZM75.9873 5.28C75.9873 6.13187 75.76 6.98508 75.2748 7.8514L77.0199 8.8286C77.6547 7.69492 77.9873 6.50812 77.9873 5.28H75.9873ZM75.2601 7.87865C74.8252 8.71501 74.1891 9.40682 73.3283 9.95773L74.4064 11.6423C75.5456 10.9132 76.4295 9.96499 77.0346 8.80135L75.2601 7.87865ZM73.3373 9.952C72.546 10.4466 71.6517 10.7 70.6273 10.7V12.7C72.003 12.7 73.2687 12.3534 74.3973 11.648L73.3373 9.952ZM70.6273 10.7C69.3505 10.7 68.3234 10.2897 67.4805 9.47916L66.0942 10.9208C67.3313 12.1103 68.8642 12.7 70.6273 12.7V10.7ZM67.5082 9.50689C66.6909 8.65697 66.2608 7.61916 66.227 6.33369L64.2277 6.3863C64.2739 8.14083 64.8837 9.66303 66.0665 10.8931L67.5082 9.50689ZM66.2273 6.36C66.2273 5.54129 66.4384 4.72377 66.8866 3.89628L65.1281 2.94372C64.5363 4.03622 64.2273 5.17871 64.2273 6.36H66.2273ZM66.8946 3.88135C67.3349 3.03463 67.9589 2.34081 68.782 1.79205L67.6726 0.127948C66.5758 0.859189 65.7198 1.80537 65.1201 2.95865L66.8946 3.88135ZM68.782 1.79205C69.5654 1.26983 70.4693 0.999996 71.5273 0.999996V-1C70.1054 -1 68.8093 -0.62984 67.6726 0.127949L68.782 1.79205ZM111.44 36.36L110.483 36.0689L110.476 36.093L110.47 36.1175L111.44 36.36ZM111.56 37.68L112.267 36.9729V36.9729L111.56 37.68ZM113.36 37.32L112.586 36.6867L112.579 36.6953L113.36 37.32ZM114.56 37.08L113.641 37.4739V37.4739L114.56 37.08ZM114.74 38.04H113.74V38.0585L113.741 38.077L114.74 38.04ZM113.48 41.34L112.694 40.7222L112.687 40.731L112.68 40.74L113.48 41.34ZM110.06 44.1L109.613 43.2056L110.06 44.1ZM100.16 44.04L100.617 43.1504L100.16 44.04ZM97.1 41.04L98.0114 40.6284L97.3257 39.1102L96.3082 40.4292L97.1 41.04ZM93.38 44.16L93.8169 45.0595L93.38 44.16ZM83.78 43.8L83.272 44.6614L83.2815 44.6669L83.78 43.8ZM80 39.9L79.1182 40.3717L79.1248 40.384L79.1318 40.3961L80 39.9ZM80.66 23.82L79.742 23.4233L79.7397 23.4289L80.66 23.82ZM86.48 16.02L87.1001 16.8046L87.1078 16.7984L86.48 16.02ZM99.32 13.62L99.0038 14.5687L99.013 14.5717L99.32 13.62ZM102.68 15.42L102.055 16.2009L103.208 17.1231L103.637 15.7105L102.68 15.42ZM104.72 8.7L103.771 8.38377L103.767 8.39659L103.763 8.40952L104.72 8.7ZM104.54 6.72L103.726 7.30124L103.752 7.33722L103.781 7.37079L104.54 6.72ZM103.7 5.88L103.075 6.66094L103.086 6.66935L103.7 5.88ZM102.8 5.04L101.968 5.5947L101.998 5.63915L102.032 5.68018L102.8 5.04ZM102.74 4.08L103.698 4.36735L103.703 4.34997L103.708 4.33242L102.74 4.08ZM106.52 1.68L106.234 0.721708L106.52 1.68ZM118.76 1.98L118.128 2.75523L118.135 2.76084L118.142 2.76632L118.76 1.98ZM120.02 8.16L119.071 7.84377L119.067 7.85629L119.063 7.86892L120.02 8.16ZM101.42 19.5L102.376 19.7946L102.567 19.1746L102.079 18.7474L101.42 19.5ZM95.9 21.24L95.062 20.6943V20.6943L95.9 21.24ZM93.2 27.48L94.1633 27.7485L93.2 27.48ZM92.24 34.08H93.24V34.0698L93.2398 34.0596L92.24 34.08ZM95.72 36.78L96.4633 37.449L96.479 37.4315L96.494 37.4132L95.72 36.78ZM96.74 34.68L97.6887 34.9962L97.6923 34.9855L97.6956 34.9746L96.74 34.68ZM110.47 36.1175C110.393 36.4247 110.32 36.7592 110.32 37.02H112.32C112.32 37.0509 112.317 37.0361 112.334 36.9439C112.349 36.8627 112.373 36.7503 112.41 36.6025L110.47 36.1175ZM110.32 37.02C110.32 37.4985 110.463 37.9971 110.853 38.3871L112.267 36.9729C112.279 36.9849 112.291 36.9992 112.3 37.0148C112.31 37.0302 112.316 37.0438 112.32 37.0533C112.327 37.0719 112.32 37.0657 112.32 37.02H110.32ZM110.853 38.3871C111.213 38.7469 111.673 38.92 112.16 38.92V36.92C112.153 36.92 112.171 36.9192 112.201 36.9315C112.233 36.9443 112.256 36.9621 112.267 36.9729L110.853 38.3871ZM112.16 38.92C112.967 38.92 113.646 38.5636 114.141 37.9447L112.579 36.6953C112.434 36.8764 112.313 36.92 112.16 36.92V38.92ZM114.134 37.9532C114.302 37.7473 114.417 37.6247 114.486 37.5622C114.521 37.53 114.52 37.5355 114.489 37.5545C114.472 37.5649 114.433 37.5876 114.374 37.6092C114.316 37.6301 114.214 37.66 114.08 37.66V35.66C113.774 35.66 113.544 35.7878 113.446 35.848C113.325 35.922 113.219 36.01 113.134 36.0878C112.963 36.2453 112.778 36.4527 112.586 36.6868L114.134 37.9532ZM114.08 37.66C114.011 37.66 113.935 37.6473 113.86 37.6183C113.786 37.5896 113.73 37.5514 113.691 37.5176C113.621 37.4559 113.616 37.4162 113.641 37.4739L115.479 36.6861C115.296 36.2578 114.874 35.66 114.08 35.66V37.66ZM113.641 37.4739C113.699 37.6089 113.74 37.7912 113.74 38.04H115.74C115.74 37.5688 115.661 37.1111 115.479 36.6861L113.641 37.4739ZM113.741 38.077C113.769 38.854 113.475 39.7284 112.694 40.7222L114.266 41.9578C115.246 40.7116 115.791 39.386 115.739 38.003L113.741 38.077ZM112.68 40.74C111.946 41.7184 110.935 42.5446 109.613 43.2056L110.507 44.9944C112.065 44.2154 113.334 43.2016 114.28 41.94L112.68 40.74ZM109.613 43.2056C108.318 43.8531 106.912 44.18 105.38 44.18V46.18C107.208 46.18 108.922 45.7869 110.507 44.9944L109.613 43.2056ZM105.38 44.18C103.507 44.18 101.93 43.8246 100.617 43.1504L99.7032 44.9296C101.35 45.7754 103.253 46.18 105.38 46.18V44.18ZM100.617 43.1504C99.2919 42.4701 98.4589 41.6195 98.0114 40.6284L96.1886 41.4516C96.8611 42.9405 98.0681 44.0899 99.7032 44.9296L100.617 43.1504ZM96.3082 40.4292C95.3097 41.7236 94.1862 42.6567 92.9431 43.2605L93.8169 45.0595C95.3738 44.3033 96.7303 43.1564 97.8918 41.6508L96.3082 40.4292ZM92.9431 43.2605C91.6796 43.8742 90.349 44.18 88.94 44.18V46.18C90.651 46.18 92.2804 45.8058 93.8169 45.0595L92.9431 43.2605ZM88.94 44.18C87.2755 44.18 85.7273 43.7662 84.2785 42.9331L83.2815 44.6669C85.0327 45.6738 86.9245 46.18 88.94 46.18V44.18ZM84.288 42.9386C82.888 42.113 81.7481 40.9435 80.8682 39.4039L79.1318 40.3961C80.1719 42.2165 81.552 43.647 83.272 44.6614L84.288 42.9386ZM80.8818 39.4283C80.0475 37.8685 79.62 36.0934 79.62 34.08H77.62C77.62 36.3866 78.1125 38.4915 79.1182 40.3717L80.8818 39.4283ZM79.62 34.08C79.62 30.568 80.2754 27.2817 81.5803 24.2111L79.7397 23.4289C78.3246 26.7583 77.62 30.312 77.62 34.08H79.62ZM81.578 24.2167C82.9201 21.1106 84.7645 18.6504 87.1001 16.8046L85.8599 15.2354C83.2355 17.3096 81.1999 20.0494 79.742 23.4233L81.578 24.2167ZM87.1078 16.7984C89.4115 14.9405 92.0105 14.02 94.94 14.02V12.02C91.5495 12.02 88.5085 13.0995 85.8522 15.2416L87.1078 16.7984ZM94.94 14.02C96.5885 14.02 97.935 14.2124 99.0038 14.5687L99.6362 12.6713C98.305 12.2276 96.7315 12.02 94.94 12.02V14.02ZM99.013 14.5717C100.14 14.9352 101.152 15.4779 102.055 16.2009L103.305 14.6391C102.208 13.7621 100.98 13.1048 99.627 12.6683L99.013 14.5717ZM103.637 15.7105L105.677 8.99048L103.763 8.40952L101.723 15.1295L103.637 15.7105ZM105.669 9.01623C105.805 8.60631 105.9 8.19125 105.9 7.8H103.9C103.9 7.88875 103.875 8.07368 103.771 8.38377L105.669 9.01623ZM105.9 7.8C105.9 7.16961 105.723 6.56405 105.299 6.06921L103.781 7.37079C103.837 7.43595 103.9 7.55039 103.9 7.8H105.9ZM105.354 6.13876C105.083 5.7593 104.727 5.41194 104.314 5.09065L103.086 6.66935C103.393 6.90805 103.597 7.1207 103.726 7.30124L105.354 6.13876ZM104.325 5.09913C103.948 4.79812 103.707 4.56608 103.568 4.39981L102.032 5.68018C102.293 5.99392 102.652 6.32188 103.075 6.66087L104.325 5.09913ZM103.632 4.4853C103.644 4.50376 103.653 4.52269 103.658 4.53899C103.663 4.55472 103.663 4.5622 103.663 4.55762C103.662 4.54532 103.662 4.48654 103.698 4.36735L101.782 3.79265C101.616 4.34598 101.579 5.01124 101.968 5.5947L103.632 4.4853ZM103.708 4.33242C103.736 4.22436 103.868 3.97279 104.401 3.63421C104.921 3.30388 105.708 2.96559 106.806 2.63828L106.234 0.721708C105.052 1.07441 104.069 1.47612 103.329 1.94578C102.602 2.40721 101.984 3.01563 101.772 3.82758L103.708 4.33242ZM106.806 2.63828C108.989 1.9871 111.273 1.66 113.66 1.66V-0.340001C111.087 -0.340001 108.611 0.0128946 106.234 0.721708L106.806 2.63828ZM113.66 1.66C115.891 1.66 117.312 2.08985 118.128 2.75523L119.392 1.20476C118.048 0.110146 116.069 -0.340001 113.66 -0.340001V1.66ZM118.142 2.76632C119.003 3.44251 119.44 4.34308 119.44 5.58H121.44C121.44 3.77692 120.757 2.27749 119.378 1.19368L118.142 2.76632ZM119.44 5.58C119.44 6.35184 119.318 7.10509 119.071 7.84377L120.969 8.47623C121.282 7.5349 121.44 6.56815 121.44 5.58H119.44ZM119.063 7.86892L110.483 36.0689L112.397 36.6511L120.977 8.45108L119.063 7.86892ZM102.079 18.7474C101.279 18.0483 100.351 17.66 99.32 17.66V19.66C99.8086 19.66 100.281 19.8317 100.761 20.2526L102.079 18.7474ZM99.32 17.66C97.6271 17.66 96.2262 18.9064 95.062 20.6943L96.738 21.7857C97.8138 20.1336 98.6929 19.66 99.32 19.66V17.66ZM95.062 20.6943C93.8751 22.5171 92.938 24.6953 92.2367 27.2115L94.1633 27.7485C94.8221 25.3847 95.6849 23.4029 96.738 21.7857L95.062 20.6943ZM92.2367 27.2115C91.5377 29.7196 91.1977 32.0192 91.2402 34.1004L93.2398 34.0596C93.2023 32.2208 93.5023 30.1204 94.1633 27.7485L92.2367 27.2115ZM91.24 34.08C91.24 35.2572 91.4269 36.3137 91.9433 37.1027C92.508 37.9654 93.3808 38.38 94.4 38.38V36.38C93.9792 36.38 93.772 36.2446 93.6167 36.0073C93.4131 35.6963 93.24 35.1028 93.24 34.08H91.24ZM94.4 38.38C95.2145 38.38 95.9212 38.0513 96.4633 37.449L94.9767 36.111C94.7988 36.3087 94.6255 36.38 94.4 36.38V38.38ZM96.494 37.4132C96.9691 36.8326 97.3554 35.996 97.6887 34.9962L95.7913 34.3638C95.4846 35.284 95.1909 35.8474 94.946 36.1468L96.494 37.4132ZM97.6956 34.9746L102.376 19.7946L100.464 19.2054L95.7844 34.3854L97.6956 34.9746ZM161.496 4.32L161.074 5.22618L161.091 5.23454L161.11 5.24219L161.496 4.32ZM164.496 6.54L163.712 7.1607L163.727 7.17878L163.742 7.19618L164.496 6.54ZM158.736 12.9L158.42 13.8487L158.465 13.8637L158.512 13.8744L158.736 12.9ZM156.996 12.18L157.422 11.2752L156.485 10.8342L156.077 11.7861L156.996 12.18ZM157.116 15.66L156.141 15.8816L156.146 15.9025L156.152 15.9231L157.116 15.66ZM157.956 18.12L157.035 18.5081L157.073 18.5991L157.128 18.6808L157.956 18.12ZM158.916 25.32L159.891 25.5449L159.896 25.5236L159.9 25.5021L158.916 25.32ZM155.736 31.02L155.013 30.3299L155.004 30.3389L155.736 31.02ZM149.496 35.1L149.852 36.0345L149.86 36.0315L149.496 35.1ZM134.616 36.06L134.771 35.0721L134.312 35.0001L133.961 35.3043L134.616 36.06ZM134.436 39.3L133.836 40.1L133.859 40.1167L133.882 40.132L134.436 39.3ZM153.036 41.4L152.505 42.2469L152.512 42.2514L152.519 42.2557L153.036 41.4ZM155.256 48.12L154.303 47.8189L154.301 47.8259L155.256 48.12ZM151.956 52.44L151.348 51.6467L151.337 51.6546L151.327 51.6628L151.956 52.44ZM123.636 55.98L123.394 56.9501L123.636 55.98ZM117.576 53.16L118.249 52.4201L118.237 52.4094L118.225 52.3992L117.576 53.16ZM115.776 47.82L114.821 47.5236L114.813 47.5503L114.806 47.5775L115.776 47.82ZM118.236 45L118.727 45.8716L118.743 45.8624L118.759 45.8526L118.236 45ZM124.416 43.5L124.499 44.4965L126.709 44.3124L125.108 42.778L124.416 43.5ZM123.156 38.82L122.201 38.5259L122.193 38.5515L122.186 38.5775L123.156 38.82ZM128.796 34.2L129.102 35.1523L131.322 34.4408L129.276 33.3226L128.796 34.2ZM124.656 24.24L125.627 24.4825L125.629 24.4737L125.631 24.4649L124.656 24.24ZM127.836 18.6L128.552 19.2986L128.56 19.2901L127.836 18.6ZM134.136 14.52L134.5 15.4515L134.136 14.52ZM153.756 14.88L153.342 15.7899L156.475 17.2186L154.594 14.3337L153.756 14.88ZM152.316 11.94L151.358 12.2241L151.364 12.2458L151.371 12.2671L152.316 11.94ZM153.276 5.1L152.543 4.42059L152.536 4.42804L152.529 4.43564L153.276 5.1ZM144.756 24.78L143.802 24.4807L143.8 24.487L144.756 24.78ZM141.336 19.56L140.54 18.9549L140.536 18.96L141.336 19.56ZM139.116 24.78L140.072 25.0741L140.074 25.0687L139.116 24.78ZM142.476 30L143.273 30.6051L142.476 30ZM129.756 45.66L129.886 44.6684L129.327 44.5956L128.976 45.0353L129.756 45.66ZM129.036 48.06H128.036V48.08L128.037 48.1L129.036 48.06ZM130.236 50.22L129.735 51.0854L129.745 51.0909L129.754 51.0962L130.236 50.22ZM138.756 49.98L138.332 49.0745L138.321 49.0798L138.756 49.98ZM140.136 46.26L139.522 47.0494L140.136 46.26ZM157.776 4.48C158.905 4.48 160.001 4.72578 161.074 5.22618L161.919 3.41381C160.592 2.79422 159.208 2.48 157.776 2.48V4.48ZM161.11 5.24219C162.21 5.70343 163.067 6.34584 163.712 7.1607L165.28 5.91929C164.406 4.81415 163.263 3.97657 161.883 3.3978L161.11 5.24219ZM163.742 7.19618C164.405 7.95924 164.696 8.7324 164.696 9.54H166.696C166.696 8.1876 166.187 6.96075 165.251 5.88382L163.742 7.19618ZM164.696 9.54C164.696 10.4696 164.398 11.0253 163.903 11.3902C163.351 11.797 162.403 12.08 160.896 12.08V14.08C162.59 14.08 164.042 13.773 165.09 12.9998C166.195 12.1847 166.696 10.9704 166.696 9.54H164.696ZM160.896 12.08C160.006 12.08 159.373 12.0207 158.961 11.9256L158.512 13.8744C159.14 14.0193 159.947 14.08 160.896 14.08V12.08ZM159.053 11.9513C158.623 11.8082 158.082 11.5856 157.422 11.2752L156.571 13.0848C157.271 13.4144 157.89 13.6718 158.42 13.8487L159.053 11.9513ZM156.077 11.7861C155.879 12.2488 155.816 12.8069 155.816 13.38H157.816C157.816 12.9131 157.874 12.6712 157.916 12.5739L156.077 11.7861ZM155.816 13.38C155.816 14.118 155.931 14.956 156.141 15.8816L158.092 15.4384C157.902 14.604 157.816 13.922 157.816 13.38H155.816ZM156.152 15.9231C156.402 16.8413 156.696 17.7034 157.035 18.5081L158.878 17.7319C158.577 17.0166 158.311 16.2387 158.081 15.3969L156.152 15.9231ZM157.128 18.6808C157.84 19.7317 158.216 21.0094 158.216 22.56H160.216C160.216 20.6706 159.752 18.9883 158.784 17.5592L157.128 18.6808ZM158.216 22.56C158.216 23.2386 158.126 24.094 157.933 25.1379L159.9 25.5021C160.106 24.386 160.216 23.4014 160.216 22.56H158.216ZM157.942 25.0951C157.507 26.9811 156.543 28.7246 155.013 30.3299L156.46 31.7101C158.21 29.8754 159.366 27.8189 159.891 25.5449L157.942 25.0951ZM155.004 30.3389C153.523 31.9316 151.576 33.214 149.133 34.1685L149.86 36.0315C152.537 34.986 154.75 33.5484 156.469 31.7011L155.004 30.3389ZM149.14 34.1655C146.748 35.077 144.09 35.54 141.156 35.54V37.54C144.303 37.54 147.205 37.043 149.852 36.0345L149.14 34.1655ZM141.156 35.54C138.882 35.54 136.754 35.3831 134.771 35.0721L134.461 37.0479C136.559 37.3769 138.791 37.54 141.156 37.54V35.54ZM133.961 35.3043C133.153 36.0046 132.716 36.9155 132.716 37.98H134.716C134.716 37.5245 134.879 37.1554 135.271 36.8157L133.961 35.3043ZM132.716 37.98C132.716 38.8661 133.149 39.5842 133.836 40.1L135.036 38.5C134.764 38.2958 134.716 38.1339 134.716 37.98H132.716ZM133.882 40.132C134.62 40.6242 135.675 40.78 136.836 40.78V38.78C135.758 38.78 135.213 38.6158 134.991 38.4679L133.882 40.132ZM136.836 40.78H145.836V38.78H136.836V40.78ZM145.836 40.78C148.819 40.78 151.006 41.306 152.505 42.2469L153.568 40.5531C151.627 39.334 149.014 38.78 145.836 38.78V40.78ZM152.519 42.2557C153.949 43.1203 154.616 44.3008 154.616 45.9H156.616C156.616 43.5792 155.564 41.7597 153.554 40.5443L152.519 42.2557ZM154.616 45.9C154.616 46.5076 154.515 47.146 154.303 47.8189L156.21 48.4211C156.477 47.574 156.616 46.7324 156.616 45.9H154.616ZM154.301 47.8259C153.899 49.1316 152.956 50.4121 151.348 51.6467L152.565 53.2333C154.396 51.8279 155.654 50.2284 156.212 48.4141L154.301 47.8259ZM151.327 51.6628C149.794 52.9042 147.558 53.9558 144.553 54.7752L145.08 56.7048C148.235 55.8442 150.759 54.6958 152.586 53.2172L151.327 51.6628ZM144.553 54.7752C141.584 55.5849 137.938 56 133.596 56V58C138.054 58 141.888 57.5751 145.08 56.7048L144.553 54.7752ZM133.596 56C129.728 56 126.495 55.6639 123.879 55.0099L123.394 56.9501C126.218 57.6561 129.624 58 133.596 58V56ZM123.879 55.0099C121.236 54.3492 119.396 53.4631 118.249 52.4201L116.904 53.8999C118.396 55.2569 120.596 56.2508 123.394 56.9501L123.879 55.0099ZM118.225 52.3992C117.03 51.3793 116.536 50.3383 116.536 49.26H114.536C114.536 51.0617 115.403 52.6207 116.927 53.9208L118.225 52.3992ZM116.536 49.26C116.536 49.0691 116.59 48.6884 116.747 48.0625L114.806 47.5775C114.643 48.2316 114.536 48.8109 114.536 49.26H116.536ZM116.731 48.1164C117 47.2496 117.62 46.494 118.727 45.8716L117.746 44.1284C116.293 44.946 115.272 46.0704 114.821 47.5236L116.731 48.1164ZM118.759 45.8526C119.789 45.2211 121.651 44.7339 124.499 44.4965L124.333 42.5035C121.422 42.746 119.163 43.2589 117.714 44.1474L118.759 45.8526ZM125.108 42.778C124.337 42.0384 123.976 41.1957 123.976 40.2H121.976C121.976 41.7643 122.576 43.1216 123.725 44.222L125.108 42.778ZM123.976 40.2C123.976 39.8512 124.024 39.4729 124.127 39.0625L122.186 38.5775C122.049 39.1271 121.976 39.6688 121.976 40.2H123.976ZM124.112 39.1141C124.614 37.4821 126.128 36.1054 129.102 35.1523L128.491 33.2477C125.225 34.2946 122.978 35.9979 122.201 38.5259L124.112 39.1141ZM129.276 33.3226C127.895 32.5678 126.911 31.6671 126.269 30.64C125.63 29.617 125.296 28.4151 125.296 27H123.296C123.296 28.7449 123.713 30.323 124.573 31.7C125.432 33.0729 126.697 34.1922 128.317 35.0774L129.276 33.3226ZM125.296 27C125.296 26.2112 125.404 25.3729 125.627 24.4825L123.686 23.9975C123.429 25.0271 123.296 26.0288 123.296 27H125.296ZM125.631 24.4649C126.066 22.581 127.027 20.8609 128.552 19.2985L127.121 17.9015C125.366 19.6991 124.207 21.739 123.682 24.0151L125.631 24.4649ZM128.56 19.2901C130.085 17.6912 132.055 16.4066 134.5 15.4515L133.773 13.5885C131.098 14.6334 128.868 16.0688 127.113 17.9099L128.56 19.2901ZM134.5 15.4515C136.933 14.5013 139.608 14.02 142.536 14.02V12.02C139.385 12.02 136.46 12.5387 133.773 13.5885L134.5 15.4515ZM142.536 14.02C147.229 14.02 150.806 14.6341 153.342 15.7899L154.171 13.9701C151.266 12.6459 147.364 12.02 142.536 12.02V14.02ZM154.594 14.3337C154.039 13.4823 153.595 12.5759 153.261 11.6129L151.371 12.2671C151.758 13.3841 152.274 14.4377 152.919 15.4263L154.594 14.3337ZM153.275 11.6559C152.975 10.6437 152.836 9.76129 152.836 9H150.836C150.836 9.9987 151.018 11.0763 151.358 12.2241L153.275 11.6559ZM152.836 9C152.836 7.71102 153.236 6.65119 154.024 5.76436L152.529 4.43564C151.397 5.70881 150.836 7.24898 150.836 9H152.836ZM154.01 5.77941C154.76 4.96923 155.951 4.48 157.776 4.48V2.48C155.602 2.48 153.792 3.07077 152.543 4.42059L154.01 5.77941ZM145.711 25.0793C146.357 23.0178 146.716 21.3382 146.716 20.1H144.716C144.716 21.0218 144.436 22.4622 143.802 24.4807L145.711 25.0793ZM146.716 20.1C146.716 19.3013 146.549 18.5157 146.042 17.9211C145.509 17.2959 144.756 17.06 143.976 17.06V19.06C144.357 19.06 144.474 19.1641 144.521 19.2189C144.593 19.3043 144.716 19.5387 144.716 20.1H146.716ZM143.976 17.06C142.585 17.06 141.436 17.7765 140.54 18.9549L142.133 20.1651C142.757 19.3435 143.368 19.06 143.976 19.06V17.06ZM140.536 18.96C139.702 20.0719 138.922 21.9607 138.159 24.4913L140.074 25.0687C140.831 22.5593 141.53 20.9681 142.136 20.16L140.536 18.96ZM138.161 24.4859C137.515 26.5851 137.156 28.2836 137.156 29.52H139.156C139.156 28.5964 139.438 27.1349 140.072 25.0741L138.161 24.4859ZM137.156 29.52C137.156 30.2977 137.318 31.0674 137.814 31.652C138.337 32.268 139.075 32.5 139.836 32.5V30.5C139.477 30.5 139.376 30.402 139.339 30.358C139.275 30.2826 139.156 30.0623 139.156 29.52H137.156ZM139.836 32.5C141.228 32.5 142.377 31.7835 143.273 30.6051L141.68 29.3949C141.056 30.2165 140.445 30.5 139.836 30.5V32.5ZM143.273 30.6051C144.146 29.4562 144.947 27.5718 145.713 25.073L143.8 24.487C143.046 26.9482 142.327 28.5438 141.68 29.3949L143.273 30.6051ZM132.816 44.84C131.731 44.84 130.755 44.7818 129.886 44.6684L129.627 46.6516C130.598 46.7782 131.662 46.84 132.816 46.84V44.84ZM128.976 45.0353C128.316 45.8599 128.036 46.902 128.036 48.06H130.036C130.036 47.218 130.237 46.6601 130.537 46.2847L128.976 45.0353ZM128.037 48.1C128.089 49.3859 128.633 50.4473 129.735 51.0854L130.737 49.3546C130.32 49.1127 130.064 48.7341 130.036 48.02L128.037 48.1ZM129.754 51.0962C130.778 51.6589 132.203 51.88 133.896 51.88V49.88C132.31 49.88 131.295 49.6611 130.718 49.3438L129.754 51.0962ZM133.896 51.88C135.984 51.88 137.769 51.5687 139.192 50.8802L138.321 49.0798C137.264 49.5913 135.809 49.88 133.896 49.88V51.88ZM139.181 50.8855C139.924 50.5369 140.554 50.0799 140.999 49.482C141.453 48.8714 141.676 48.1648 141.676 47.4H139.676C139.676 47.7552 139.58 48.0386 139.394 48.288C139.199 48.5501 138.868 48.8231 138.332 49.0745L139.181 50.8855ZM141.676 47.4C141.676 46.6302 141.368 45.9514 140.75 45.4706L139.522 47.0494C139.624 47.1287 139.676 47.2098 139.676 47.4H141.676ZM140.75 45.4706C140.147 45.0015 139.374 44.84 138.576 44.84V46.84C139.139 46.84 139.406 46.9585 139.522 47.0494L140.75 45.4706ZM138.576 44.84H132.816V46.84H138.576V44.84ZM195.082 15.42L194.498 16.2319L194.508 16.2386L195.082 15.42ZM198.262 23.7L197.292 23.4575L197.29 23.4679L197.287 23.4784L198.262 23.7ZM193.222 29.4L193.603 30.3247L193.61 30.3219L193.222 29.4ZM178.282 30.72L178.427 29.7305L177.304 29.5662L177.283 30.7008L178.282 30.72ZM179.962 35.1L180.549 34.2901L179.962 35.1ZM187.582 36.06L187.804 37.0351L187.825 37.0304L187.845 37.0248L187.582 36.06ZM190.942 35.04L191.25 35.9914L191.264 35.9868L191.279 35.9817L190.942 35.04ZM193.882 35.22H192.882V35.2343L192.883 35.2486L193.882 35.22ZM192.322 39.66L193.138 40.2393L193.145 40.2292L192.322 39.66ZM187.522 43.56L187.976 44.451L187.522 43.56ZM168.922 41.82L169.542 41.0348L168.922 41.82ZM165.142 27.84L164.162 27.6408L164.162 27.6439L165.142 27.84ZM171.682 16.74L172.276 17.5446L172.278 17.5434L171.682 16.74ZM178.702 27.12L177.723 26.916L177.527 27.857L178.46 28.0901L178.702 27.12ZM183.202 24.84L184.073 25.3313L183.202 24.84ZM184.462 19.62L185.462 19.5992L185.462 19.5917L185.462 19.5843L184.462 19.62ZM181.942 19.02L182.692 19.6816L182.702 19.671L182.711 19.6602L181.942 19.02ZM180.142 22.14L179.223 21.7461L179.218 21.7573L179.214 21.7686L180.142 22.14ZM184.042 13.96C189.061 13.96 192.479 14.7789 194.498 16.2318L195.666 14.6082C193.126 12.7811 189.184 11.96 184.042 11.96V13.96ZM194.508 16.2386C196.554 17.6744 197.502 19.444 197.502 21.6H199.502C199.502 18.716 198.171 16.3656 195.657 14.6014L194.508 16.2386ZM197.502 21.6C197.502 22.2903 197.43 22.9077 197.292 23.4575L199.232 23.9425C199.415 23.2123 199.502 22.4297 199.502 21.6H197.502ZM197.287 23.4784C196.767 25.767 195.334 27.4277 192.835 28.4781L193.61 30.3219C196.631 29.0523 198.558 26.913 199.237 23.9216L197.287 23.4784ZM192.842 28.4753C190.27 29.5343 187.185 30.08 183.562 30.08V32.08C187.38 32.08 190.735 31.5057 193.603 30.3247L192.842 28.4753ZM183.562 30.08C181.724 30.08 180.013 29.9627 178.427 29.7305L178.138 31.7095C179.831 31.9573 181.64 32.08 183.562 32.08V30.08ZM177.283 30.7008C177.239 32.9504 177.844 34.801 179.376 35.9099L180.549 34.2901C179.76 33.719 179.245 32.6495 179.282 30.7392L177.283 30.7008ZM179.376 35.9099C180.768 36.918 182.623 37.36 184.822 37.36V35.36C182.862 35.36 181.477 34.962 180.549 34.2901L179.376 35.9099ZM184.822 37.36C185.852 37.36 186.847 37.2527 187.804 37.0351L187.361 35.0849C186.558 35.2673 185.713 35.36 184.822 35.36V37.36ZM187.845 37.0248C188.746 36.7791 189.883 36.4339 191.25 35.9914L190.635 34.0886C189.282 34.5261 188.178 34.8609 187.319 35.0952L187.845 37.0248ZM191.279 35.9817C191.824 35.787 192.265 35.6471 192.607 35.5571C192.967 35.4622 193.156 35.44 193.222 35.44V33.44C192.889 33.44 192.497 33.5178 192.098 33.6229C191.68 33.7329 191.181 33.893 190.606 34.0983L191.279 35.9817ZM193.222 35.44C193.236 35.44 193.203 35.4422 193.145 35.4192C193.08 35.3937 193.01 35.3474 192.954 35.2809C192.849 35.1564 192.882 35.0771 192.882 35.22H194.882C194.882 34.8429 194.806 34.3736 194.481 33.9891C194.128 33.5726 193.644 33.44 193.222 33.44V35.44ZM192.883 35.2486C192.915 36.3715 192.501 37.6448 191.5 39.0908L193.145 40.2292C194.303 38.5552 194.93 36.8685 194.882 35.1914L192.883 35.2486ZM191.507 39.0808C190.543 40.4379 189.083 41.6425 187.068 42.669L187.976 44.451C190.201 43.3175 191.942 41.9221 193.138 40.2392L191.507 39.0808ZM187.068 42.669C185.121 43.6611 182.725 44.18 179.842 44.18V46.18C182.96 46.18 185.684 45.6189 187.976 44.451L187.068 42.669ZM179.842 44.18C175.575 44.18 172.168 43.1063 169.542 41.0348L168.303 42.6052C171.357 45.0137 175.23 46.18 179.842 46.18V44.18ZM169.542 41.0348C166.987 39.0202 165.662 36.0766 165.662 32.04H163.662C163.662 36.5634 165.177 40.1398 168.303 42.6052L169.542 41.0348ZM165.662 32.04C165.662 30.9245 165.812 29.5929 166.123 28.0361L164.162 27.6439C163.833 29.2871 163.662 30.7555 163.662 32.04H165.662ZM166.122 28.0392C167.083 23.3101 169.154 19.849 172.276 17.5446L171.089 15.9354C167.491 18.591 165.201 22.5299 164.162 27.6408L166.122 28.0392ZM172.278 17.5434C175.481 15.1689 179.385 13.96 184.042 13.96V11.96C179.02 11.96 174.683 13.271 171.087 15.9366L172.278 17.5434ZM178.46 28.0901C178.735 28.159 179.049 28.18 179.362 28.18V26.18C179.116 26.18 178.989 26.161 178.945 26.1499L178.46 28.0901ZM179.362 28.18C181.432 28.18 183.03 27.1801 184.073 25.3313L182.331 24.3487C181.614 25.6199 180.653 26.18 179.362 26.18V28.18ZM184.073 25.3313C185.048 23.6039 185.506 21.6849 185.462 19.5992L183.463 19.6408C183.499 21.3951 183.117 22.9561 182.331 24.3487L184.073 25.3313ZM185.462 19.5843C185.44 18.9657 185.34 18.3529 185.061 17.8639C184.739 17.3008 184.193 16.94 183.502 16.94V18.94C183.49 18.94 183.439 18.9352 183.38 18.8992C183.324 18.8654 183.311 18.8341 183.324 18.8561C183.339 18.8828 183.372 18.9539 183.402 19.0945C183.432 19.2331 183.454 19.4176 183.463 19.6557L185.462 19.5843ZM183.502 16.94C183.008 16.94 182.57 17.1405 182.213 17.3878C181.852 17.6375 181.507 17.9804 181.174 18.3798L182.711 19.6602C182.978 19.3396 183.192 19.1425 183.352 19.0322C183.514 18.9195 183.557 18.94 183.502 18.94V16.94ZM181.193 18.3584C180.49 19.154 179.841 20.3053 179.223 21.7461L181.061 22.5339C181.644 21.1747 182.194 20.246 182.692 19.6816L181.193 18.3584ZM179.214 21.7686C178.627 23.2362 178.132 24.9549 177.723 26.916L179.681 27.324C180.073 25.4451 180.538 23.8438 181.071 22.5114L179.214 21.7686ZM225.717 1.98L225.085 2.75523L225.092 2.76084L225.099 2.76632L225.717 1.98ZM226.977 8.16L226.028 7.84377L226.024 7.85474L226.021 7.86578L226.977 8.16ZM217.557 38.76L216.601 38.4658L216.593 38.4914L216.586 38.5175L217.557 38.76ZM217.677 41.28L216.829 41.81L216.845 41.8361L216.863 41.8612L217.677 41.28ZM218.517 42.12L219.224 41.4129L219.18 41.3689L219.131 41.3306L218.517 42.12ZM219.117 42.84L218.259 43.3545L218.286 43.3987L218.317 43.44L219.117 42.84ZM219.177 43.5L220.11 43.859L220.126 43.8175L220.138 43.7747L219.177 43.5ZM217.977 44.64L217.605 43.7115L217.977 44.64ZM199.257 44.52L198.657 45.32L198.679 45.3367L198.702 45.3521L199.257 44.52ZM198.777 43.14L197.828 42.8238L197.821 42.8444L197.815 42.8653L198.777 43.14ZM200.037 41.88L200.504 42.7638L200.507 42.7624L200.037 41.88ZM201.537 40.74L200.797 40.0673L201.537 40.74ZM202.557 38.64L201.6 38.3486L201.597 38.36L202.557 38.64ZM211.677 8.7L210.728 8.38377L210.724 8.39614L210.72 8.40861L211.677 8.7ZM211.497 6.72L210.683 7.30124L210.709 7.33722L210.737 7.37079L211.497 6.72ZM210.657 5.88L210.032 6.66094L210.043 6.66935L210.657 5.88ZM209.757 5.04L208.925 5.5947L208.954 5.63915L208.988 5.68018L209.757 5.04ZM209.697 4.08L210.654 4.36735L210.66 4.34997L210.664 4.33242L209.697 4.08ZM213.477 1.68L213.191 0.721708H213.191L213.477 1.68ZM220.617 1.66C222.847 1.66 224.268 2.08985 225.085 2.75523L226.348 1.20476C225.005 0.110146 223.026 -0.340001 220.617 -0.340001V1.66ZM225.099 2.76632C225.959 3.44251 226.397 4.34308 226.397 5.58H228.397C228.397 3.77692 227.714 2.27749 226.334 1.19368L225.099 2.76632ZM226.397 5.58C226.397 6.35184 226.274 7.10509 226.028 7.84377L227.925 8.47623C228.239 7.5349 228.397 6.56815 228.397 5.58H226.397ZM226.021 7.86578L216.601 38.4658L218.512 39.0542L227.932 8.45422L226.021 7.86578ZM216.586 38.5175C216.453 39.0495 216.377 39.5542 216.377 40.02H218.377C218.377 39.7658 218.42 39.4305 218.527 39.0025L216.586 38.5175ZM216.377 40.02C216.377 40.6592 216.498 41.2818 216.829 41.81L218.525 40.75C218.455 40.6382 218.377 40.4208 218.377 40.02H216.377ZM216.863 41.8612C217.134 42.2407 217.49 42.5881 217.903 42.9094L219.131 41.3306C218.824 41.0919 218.619 40.8793 218.49 40.6988L216.863 41.8612ZM217.809 42.8271C218.066 43.0834 218.2 43.2565 218.259 43.3545L219.974 42.3255C219.793 42.0235 219.527 41.7166 219.224 41.4129L217.809 42.8271ZM218.317 43.44C218.254 43.3564 218.231 43.2703 218.226 43.2155C218.222 43.1705 218.231 43.1682 218.215 43.2253L220.138 43.7747C220.263 43.3375 220.299 42.7495 219.917 42.24L218.317 43.44ZM218.243 43.141C218.159 43.359 217.992 43.5568 217.605 43.7115L218.348 45.5685C219.161 45.2432 219.794 44.681 220.11 43.859L218.243 43.141ZM217.605 43.7115C217.188 43.8786 216.424 44 215.217 44V46C216.489 46 217.566 45.8814 218.348 45.5685L217.605 43.7115ZM215.217 44H201.537V46H215.217V44ZM201.537 44C200.556 44 200.041 43.8412 199.811 43.688L198.702 45.3521C199.432 45.8388 200.437 46 201.537 46V44ZM199.857 43.72C199.739 43.6315 199.722 43.579 199.721 43.5765C199.72 43.572 199.717 43.5622 199.717 43.5413C199.717 43.5188 199.72 43.4778 199.738 43.4147L197.815 42.8653C197.69 43.3037 197.672 43.7734 197.832 44.2335C197.991 44.691 198.295 45.0485 198.657 45.32L199.857 43.72ZM199.725 43.4562C199.77 43.321 199.936 43.0646 200.504 42.7638L199.569 40.9962C198.777 41.4154 198.103 41.999 197.828 42.8238L199.725 43.4562ZM200.507 42.7624C201.194 42.396 201.789 41.9487 202.277 41.4127L200.797 40.0673C200.484 40.4113 200.079 40.724 199.566 40.9976L200.507 42.7624ZM202.277 41.4127C202.826 40.8084 203.219 39.9391 203.517 38.92L201.597 38.36C201.334 39.2609 201.047 39.7916 200.797 40.0673L202.277 41.4127ZM203.513 38.9314L212.633 8.99139L210.72 8.40861L201.6 38.3486L203.513 38.9314ZM212.625 9.01623C212.762 8.60632 212.857 8.19125 212.857 7.8H210.857C210.857 7.88875 210.831 8.07368 210.728 8.38377L212.625 9.01623ZM212.857 7.8C212.857 7.16961 212.68 6.56404 212.256 6.06921L210.737 7.37079C210.793 7.43595 210.857 7.55039 210.857 7.8H212.857ZM212.31 6.13876C212.039 5.7593 211.684 5.41194 211.271 5.09065L210.043 6.66935C210.35 6.90805 210.554 7.1207 210.683 7.30124L212.31 6.13876ZM211.281 5.09913C210.905 4.79812 210.663 4.56608 210.525 4.39981L208.988 5.68018C209.25 5.99392 209.608 6.32188 210.032 6.66087L211.281 5.09913ZM210.589 4.4853C210.601 4.50376 210.61 4.52269 210.615 4.53899C210.62 4.55472 210.62 4.5622 210.62 4.55762C210.619 4.54532 210.619 4.48654 210.654 4.36735L208.739 3.79265C208.573 4.34598 208.536 5.01124 208.925 5.5947L210.589 4.4853ZM210.664 4.33242C210.692 4.22436 210.824 3.97279 211.358 3.63421C211.878 3.30388 212.665 2.96559 213.762 2.63828L213.191 0.721708C212.008 1.07441 211.025 1.47612 210.286 1.94578C209.559 2.40721 208.941 3.01563 208.729 3.82758L210.664 4.33242ZM213.762 2.63828C215.946 1.9871 218.229 1.66 220.617 1.66V-0.340001C218.044 -0.340001 215.567 0.0128946 213.191 0.721708L213.762 2.63828ZM249.729 20.82L248.781 20.5038L248.777 20.5148L248.773 20.5259L249.729 20.82ZM244.209 38.76L243.253 38.4659L243.246 38.4915L243.239 38.5175L244.209 38.76ZM244.329 41.28L243.481 41.81L243.498 41.8361L243.515 41.8612L244.329 41.28ZM245.169 42.12L245.876 41.4129L245.832 41.3689L245.783 41.3306L245.169 42.12ZM245.769 42.84L244.912 43.3545L244.938 43.3987L244.969 43.44L245.769 42.84ZM245.829 43.5L246.763 43.859L246.779 43.8175L246.791 43.7747L245.829 43.5ZM244.629 44.64L245.001 45.5685L244.629 44.64ZM225.909 44.52L225.309 45.32L225.331 45.3367L225.355 45.3521L225.909 44.52ZM225.429 43.14L224.481 42.8238L224.474 42.8444L224.468 42.8653L225.429 43.14ZM226.689 41.88L227.157 42.7638L227.16 42.7624L226.689 41.88ZM228.189 40.74L227.449 40.0673L228.189 40.74ZM229.209 38.64L228.252 38.3517L228.249 38.36L229.209 38.64ZM234.429 21.3L233.481 20.9838L233.476 20.9977L233.472 21.0117L234.429 21.3ZM234.309 19.38L233.495 19.9612L233.517 19.9916L233.541 20.0202L234.309 19.38ZM233.409 18.54L232.785 19.3209L232.81 19.3409L232.836 19.3592L233.409 18.54ZM232.569 17.7L231.737 18.2547V18.2547L232.569 17.7ZM232.509 16.74L233.467 17.0273L233.472 17.01L233.477 16.9924L232.509 16.74ZM236.289 14.34L236.575 15.2983L236.583 15.296L236.59 15.2936L236.289 14.34ZM251.349 1.56L250.642 2.2671L250.649 2.27404L250.656 2.28083L251.349 1.56ZM252.069 8.34L251.197 7.8514L251.189 7.86491L251.182 7.87865L252.069 8.34ZM249.789 10.8L250.319 11.648L250.328 11.6423L249.789 10.8ZM242.709 10.2L241.988 10.8931L242.002 10.9072L242.016 10.9208L242.709 10.2ZM241.149 6.36H240.149V6.37315L240.15 6.3863L241.149 6.36ZM241.929 3.42L242.809 3.89628L242.813 3.88885L242.816 3.88135L241.929 3.42ZM244.149 0.959998L244.704 1.79205V1.79205L244.149 0.959998ZM243.429 14.26C245.66 14.26 247.081 14.6899 247.898 15.3552L249.161 13.8048C247.817 12.7101 245.839 12.26 243.429 12.26V14.26ZM247.898 15.3552C248.721 16.0265 249.149 16.9294 249.149 18.18H251.149C251.149 16.3906 250.497 14.8935 249.161 13.8048L247.898 15.3552ZM249.149 18.18C249.149 18.9968 249.025 19.7697 248.781 20.5038L250.678 21.1362C250.993 20.1903 251.149 19.2032 251.149 18.18H249.149ZM248.773 20.5259L243.253 38.4659L245.165 39.0541L250.685 21.1141L248.773 20.5259ZM243.239 38.5175C243.106 39.0495 243.029 39.5542 243.029 40.02H245.029C245.029 39.7658 245.072 39.4305 245.179 39.0025L243.239 38.5175ZM243.029 40.02C243.029 40.6592 243.151 41.2818 243.481 41.81L245.177 40.75C245.107 40.6382 245.029 40.4208 245.029 40.02H243.029ZM243.515 41.8612C243.787 42.2407 244.142 42.5881 244.555 42.9094L245.783 41.3306C245.476 41.0919 245.272 40.8793 245.143 40.6988L243.515 41.8612ZM244.462 42.8271C244.718 43.0834 244.853 43.2565 244.912 43.3545L246.627 42.3255C246.445 42.0235 246.18 41.7166 245.876 41.4129L244.462 42.8271ZM244.969 43.44C244.907 43.3564 244.883 43.2703 244.878 43.2155C244.874 43.1705 244.884 43.1682 244.868 43.2253L246.791 43.7747C246.916 43.3375 246.951 42.7495 246.569 42.24L244.969 43.44ZM244.896 43.141C244.812 43.359 244.645 43.5568 244.258 43.7115L245.001 45.5685C245.814 45.2432 246.446 44.681 246.763 43.859L244.896 43.141ZM244.258 43.7115C243.84 43.8786 243.077 44 241.869 44V46C243.141 46 244.218 45.8814 245.001 45.5685L244.258 43.7115ZM241.869 44H228.189V46H241.869V44ZM228.189 44C227.209 44 226.694 43.8412 226.464 43.688L225.355 45.3521C226.085 45.8388 227.089 46 228.189 46V44ZM226.509 43.72C226.391 43.6315 226.375 43.579 226.374 43.5765C226.372 43.572 226.369 43.5622 226.369 43.5413C226.369 43.5188 226.373 43.4778 226.391 43.4147L224.468 42.8653C224.342 43.3037 224.325 43.7734 224.485 44.2335C224.644 44.691 224.947 45.0485 225.309 45.32L226.509 43.72ZM226.378 43.4562C226.423 43.321 226.589 43.0646 227.157 42.7638L226.221 40.9962C225.43 41.4154 224.755 41.999 224.481 42.8238L226.378 43.4562ZM227.16 42.7624C227.847 42.396 228.442 41.9487 228.929 41.4127L227.449 40.0673C227.137 40.4113 226.732 40.724 226.219 40.9976L227.16 42.7624ZM228.929 41.4127C229.479 40.8084 229.872 39.9391 230.169 38.92L228.249 38.36C227.986 39.2609 227.7 39.7916 227.449 40.0673L228.929 41.4127ZM230.167 38.9283L235.387 21.5883L233.472 21.0117L228.252 38.3517L230.167 38.9283ZM235.378 21.6162C235.515 21.2063 235.609 20.7913 235.609 20.4H233.609C233.609 20.4887 233.584 20.6737 233.481 20.9838L235.378 21.6162ZM235.609 20.4C235.609 19.8203 235.478 19.2206 235.077 18.7398L233.541 20.0202C233.542 20.0219 233.558 20.0407 233.575 20.0972C233.592 20.1566 233.609 20.2535 233.609 20.4H235.609ZM235.123 18.7988C234.836 18.3965 234.44 18.0408 233.983 17.7208L232.836 19.3592C233.178 19.5992 233.383 19.8035 233.495 19.9612L235.123 18.7988ZM234.034 17.7591C233.662 17.4618 233.476 17.2578 233.401 17.1453L231.737 18.2547C231.982 18.6222 232.356 18.9782 232.785 19.3209L234.034 17.7591ZM233.401 17.1453C233.414 17.1638 233.422 17.1827 233.427 17.199C233.433 17.2147 233.433 17.2222 233.432 17.2176C233.432 17.2053 233.431 17.1465 233.467 17.0273L231.551 16.4527C231.385 17.006 231.348 17.6712 231.737 18.2547L233.401 17.1453ZM233.477 16.9924C233.505 16.8844 233.637 16.6328 234.17 16.2942C234.691 15.9639 235.478 15.6256 236.575 15.2983L236.003 13.3817C234.821 13.7344 233.838 14.1361 233.098 14.6058C232.371 15.0672 231.753 15.6756 231.542 16.4876L233.477 16.9924ZM236.59 15.2936C238.769 14.6055 241.048 14.26 243.429 14.26V12.26C240.851 12.26 238.369 12.6345 235.988 13.3864L236.59 15.2936ZM247.449 0.999996C248.762 0.999996 249.802 1.4269 250.642 2.2671L252.056 0.852891C250.817 -0.386905 249.257 -1 247.449 -1V0.999996ZM250.656 2.28083C251.494 3.08688 251.909 4.06411 251.909 5.28H253.909C253.909 3.53589 253.284 2.03311 252.042 0.839164L250.656 2.28083ZM251.909 5.28C251.909 6.13187 251.682 6.98508 251.197 7.8514L252.942 8.8286C253.577 7.69492 253.909 6.50812 253.909 5.28H251.909ZM251.182 7.87865C250.747 8.71501 250.111 9.40682 249.25 9.95773L250.328 11.6423C251.467 10.9132 252.351 9.96499 252.956 8.80135L251.182 7.87865ZM249.259 9.952C248.468 10.4466 247.574 10.7 246.549 10.7V12.7C247.925 12.7 249.191 12.3534 250.319 11.648L249.259 9.952ZM246.549 10.7C245.272 10.7 244.245 10.2897 243.402 9.47916L242.016 10.9208C243.253 12.1103 244.786 12.7 246.549 12.7V10.7ZM243.43 9.50689C242.613 8.65697 242.183 7.61916 242.149 6.33369L240.15 6.3863C240.196 8.14083 240.806 9.66303 241.988 10.8931L243.43 9.50689ZM242.149 6.36C242.149 5.54129 242.36 4.72377 242.809 3.89628L241.05 2.94372C240.458 4.03622 240.149 5.17871 240.149 6.36H242.149ZM242.816 3.88135C243.257 3.03463 243.881 2.34081 244.704 1.79205L243.595 0.127948C242.498 0.859189 241.642 1.80537 241.042 2.95865L242.816 3.88135ZM244.704 1.79205C245.487 1.26983 246.391 0.999996 247.449 0.999996V-1C246.027 -1 244.731 -0.62984 243.595 0.127949L244.704 1.79205ZM290.962 36.72L291.856 37.1672L291.893 37.094L291.917 37.0158L290.962 36.72ZM291.022 38.1L290.222 38.7L290.264 38.7569L290.315 38.8071L291.022 38.1ZM292.822 37.74L292.048 37.1067L292.041 37.1153L292.822 37.74ZM294.022 37.5L293.103 37.8939L293.114 37.9209L293.127 37.9472L294.022 37.5ZM294.202 38.4H293.202V38.4172L293.202 38.4345L294.202 38.4ZM293.062 41.82L293.865 42.4152L293.871 42.4083L293.876 42.4012L293.062 41.82ZM289.522 44.52L289.93 45.4329L289.941 45.428L289.522 44.52ZM277.702 43.74L277.08 44.5228L277.086 44.5278L277.092 44.5326L277.702 43.74ZM275.302 38.82H274.302V38.8298L274.302 38.8396L275.302 38.82ZM276.382 33.84L277.313 34.2044L277.316 34.1968L276.382 33.84ZM279.682 25.2L278.749 24.841L278.748 24.8432L279.682 25.2ZM279.442 22.74L278.735 23.4471L278.779 23.4911L278.828 23.5294L279.442 22.74ZM275.722 23.52L276.429 24.2271L276.438 24.2185L276.446 24.2097L275.722 23.52ZM273.982 26.52L274.939 26.8108L274.94 26.8073L273.982 26.52ZM270.262 38.76L271.202 39.1017L271.211 39.0765L271.219 39.0508L270.262 38.76ZM270.322 41.22L269.474 41.75L269.49 41.7761L269.508 41.8012L270.322 41.22ZM271.162 42.12L270.497 42.8674L270.504 42.8734L270.511 42.8793L271.162 42.12ZM271.762 42.78L272.619 42.2655V42.2655L271.762 42.78ZM271.822 43.5L272.778 43.7941L272.781 43.7844L272.783 43.7747L271.822 43.5ZM270.682 44.64L271.053 45.5685L270.682 44.64ZM251.962 44.52L251.362 45.32L251.368 45.3244L251.374 45.3287L251.962 44.52ZM251.422 43.14L250.473 42.8238L250.456 42.8763L250.444 42.9305L251.422 43.14ZM252.682 41.88L253.15 42.7638L253.152 42.7624L252.682 41.88ZM254.182 40.74L253.442 40.0673L254.182 40.74ZM255.202 38.64L254.246 38.3457L254.244 38.3528L254.242 38.36L255.202 38.64ZM260.542 21.3L259.613 20.9286L259.598 20.9666L259.586 21.0057L260.542 21.3ZM260.362 19.44L259.53 19.9947L259.559 20.0391L259.594 20.0802L260.362 19.44ZM259.522 18.54L260.191 17.7967L260.169 17.7773L260.147 17.7591L259.522 18.54ZM258.682 17.7L257.85 18.2547V18.2547L258.682 17.7ZM258.622 16.74L259.58 17.0273L259.585 17.01L259.589 16.9924L258.622 16.74ZM262.402 14.34L262.688 15.2983L262.695 15.296L262.703 15.2936L262.402 14.34ZM274.282 14.94L273.587 15.6594L273.594 15.6657L273.6 15.6719L274.282 14.94ZM275.842 19.5L274.844 19.4389L274.626 23.0027L276.663 20.0707L275.842 19.5ZM281.062 14.64L281.493 15.5421L281.501 15.5383L281.509 15.5344L281.062 14.64ZM292.942 15.48L292.235 16.1872L292.244 16.1965L292.942 15.48ZM294.622 24.9L293.673 24.5838L293.67 24.594L293.667 24.6042L294.622 24.9ZM290.067 36.2728C289.883 36.6418 289.842 37.0689 289.842 37.44H291.842C291.842 37.319 291.85 37.2362 291.858 37.1844C291.867 37.1299 291.874 37.1325 291.856 37.1672L290.067 36.2728ZM289.842 37.44C289.842 37.8519 289.929 38.3097 290.222 38.7L291.822 37.5C291.847 37.534 291.853 37.5571 291.852 37.5519C291.85 37.5445 291.842 37.5105 291.842 37.44H289.842ZM290.315 38.8071C290.675 39.1669 291.135 39.34 291.622 39.34V37.34C291.615 37.34 291.632 37.3392 291.663 37.3515C291.695 37.3643 291.718 37.3821 291.729 37.3929L290.315 38.8071ZM291.622 39.34C292.428 39.34 293.108 38.9836 293.603 38.3647L292.041 37.1153C291.896 37.2964 291.775 37.34 291.622 37.34V39.34ZM293.596 38.3732C293.764 38.1673 293.879 38.0447 293.948 37.9822C293.983 37.95 293.982 37.9555 293.951 37.9745C293.934 37.9849 293.894 38.0076 293.836 38.0292C293.778 38.0501 293.676 38.08 293.542 38.08V36.08C293.236 36.08 293.006 36.2078 292.908 36.268C292.787 36.342 292.681 36.43 292.596 36.5078C292.424 36.6653 292.239 36.8727 292.048 37.1068L293.596 38.3732ZM293.542 38.08C293.472 38.08 293.397 38.0673 293.322 38.0383C293.248 38.0096 293.192 37.9714 293.153 37.9376C293.083 37.8759 293.078 37.8362 293.103 37.8939L294.941 37.1061C294.757 36.6778 294.336 36.08 293.542 36.08V38.08ZM293.127 37.9472C293.158 38.0093 293.202 38.1446 293.202 38.4H295.202C295.202 37.9354 295.125 37.4707 294.916 37.0528L293.127 37.9472ZM293.202 38.4345C293.234 39.3355 292.945 40.2635 292.248 41.2388L293.876 42.4012C294.779 41.1365 295.25 39.7845 295.201 38.3655L293.202 38.4345ZM292.258 41.2248C291.582 42.1375 290.552 42.9433 289.103 43.612L289.941 45.428C291.612 44.6567 292.941 43.6625 293.865 42.4152L292.258 41.2248ZM289.113 43.6072C287.754 44.2153 286.061 44.54 284.002 44.54V46.54C286.263 46.54 288.25 46.1847 289.93 45.4328L289.113 43.6072ZM284.002 44.54C281.508 44.54 279.646 43.9735 278.312 42.9474L277.092 44.5326C278.878 45.9065 281.216 46.54 284.002 46.54V44.54ZM278.324 42.9572C277.004 41.9077 276.336 40.5507 276.302 38.8004L274.302 38.8396C274.348 41.1693 275.28 43.0923 277.08 44.5228L278.324 42.9572ZM276.302 38.82C276.302 37.4988 276.624 35.9649 277.313 34.2044L275.451 33.4756C274.7 35.3951 274.302 37.1812 274.302 38.82H276.302ZM277.316 34.1968L280.616 25.5568L278.748 24.8432L275.448 33.4832L277.316 34.1968ZM280.615 25.559C280.832 24.9965 280.982 24.4415 280.982 23.94H278.982C278.982 24.0785 278.932 24.3635 278.749 24.841L280.615 25.559ZM280.982 23.94C280.982 23.1605 280.696 22.4483 280.056 21.9506L278.828 23.5294C278.908 23.5917 278.982 23.6795 278.982 23.94H280.982ZM280.149 22.0329C279.629 21.5131 278.969 21.26 278.242 21.26V23.26C278.475 23.26 278.615 23.3269 278.735 23.4471L280.149 22.0329ZM278.242 21.26C277.009 21.26 275.924 21.8581 274.998 22.8303L276.446 24.2097C277.12 23.5019 277.715 23.26 278.242 23.26V21.26ZM275.015 22.8129C274.086 23.7421 273.426 24.8915 273.024 26.2327L274.94 26.8073C275.257 25.7485 275.758 24.8979 276.429 24.2271L275.015 22.8129ZM273.025 26.2292L269.305 38.4692L271.219 39.0508L274.939 26.8108L273.025 26.2292ZM269.322 38.4183C269.129 38.9495 269.022 39.4855 269.022 40.02H271.022C271.022 39.7545 271.075 39.4505 271.202 39.1017L269.322 38.4183ZM269.022 40.02C269.022 40.637 269.151 41.2331 269.474 41.75L271.17 40.69C271.093 40.5669 271.022 40.363 271.022 40.02H269.022ZM269.508 41.8012C269.765 42.1608 270.102 42.5159 270.497 42.8674L271.826 41.3726C271.502 41.0841 271.279 40.8392 271.136 40.6388L269.508 41.8012ZM270.511 42.8793C270.751 43.085 270.862 43.2242 270.904 43.2945L272.619 42.2655C272.422 41.9358 272.133 41.635 271.813 41.3607L270.511 42.8793ZM270.904 43.2945C270.895 43.2787 270.886 43.2604 270.88 43.2407C270.874 43.2212 270.871 43.2046 270.87 43.193C270.868 43.1704 270.874 43.1778 270.86 43.2253L272.783 43.7747C272.919 43.2992 272.916 42.7592 272.619 42.2655L270.904 43.2945ZM270.866 43.2059C270.812 43.3816 270.688 43.5603 270.31 43.7115L271.053 45.5685C271.875 45.2397 272.512 44.6584 272.778 43.7941L270.866 43.2059ZM270.31 43.7115C269.895 43.8776 269.115 44 267.862 44V46C269.169 46 270.269 45.8824 271.053 45.5685L270.31 43.7115ZM267.862 44H254.182V46H267.862V44ZM254.182 44C253.189 44 252.722 43.8365 252.55 43.7113L251.374 45.3287C252.082 45.8435 253.095 46 254.182 46V44ZM252.562 43.72C252.439 43.6275 252.407 43.5636 252.398 43.5406C252.39 43.5209 252.374 43.4691 252.4 43.3495L250.444 42.9305C250.35 43.3709 250.363 43.8291 250.536 44.2694C250.707 44.7064 251.005 45.0525 251.362 45.32L252.562 43.72ZM252.371 43.4562C252.416 43.321 252.582 43.0646 253.15 42.7638L252.214 40.9962C251.422 41.4154 250.748 41.999 250.473 42.8238L252.371 43.4562ZM253.152 42.7624C253.839 42.396 254.434 41.9487 254.922 41.4127L253.442 40.0673C253.129 40.4113 252.724 40.724 252.211 40.9976L253.152 42.7624ZM254.922 41.4127C255.471 40.8084 255.865 39.9391 256.162 38.92L254.242 38.36C253.979 39.2609 253.693 39.7916 253.442 40.0673L254.922 41.4127ZM256.158 38.9343L261.498 21.5943L259.586 21.0057L254.246 38.3457L256.158 38.9343ZM261.47 21.6714C261.619 21.3 261.662 20.8733 261.662 20.46H259.662C259.662 20.7667 259.625 20.9 259.613 20.9286L261.47 21.6714ZM261.662 20.46C261.662 19.8803 261.531 19.2806 261.13 18.7998L259.594 20.0802C259.595 20.0819 259.611 20.1007 259.628 20.1572C259.645 20.2166 259.662 20.3135 259.662 20.46H261.662ZM261.194 18.8853C260.964 18.5399 260.609 18.1733 260.191 17.7967L258.853 19.2833C259.234 19.6267 259.44 19.8601 259.53 19.9947L261.194 18.8853ZM260.147 17.7591C259.775 17.4618 259.589 17.2578 259.514 17.1453L257.85 18.2547C258.095 18.6222 258.469 18.9782 258.897 19.3209L260.147 17.7591ZM259.514 17.1453C259.526 17.1638 259.535 17.1827 259.54 17.199C259.545 17.2147 259.545 17.2222 259.545 17.2176C259.544 17.2053 259.544 17.1465 259.58 17.0273L257.664 16.4527C257.498 17.006 257.461 17.6712 257.85 18.2547L259.514 17.1453ZM259.589 16.9924C259.618 16.8844 259.75 16.6328 260.283 16.2942C260.803 15.9639 261.59 15.6256 262.688 15.2983L262.116 13.3817C260.934 13.7344 259.951 14.1361 259.211 14.6058C258.484 15.0672 257.866 15.6756 257.654 16.4876L259.589 16.9924ZM262.703 15.2936C264.882 14.6055 267.16 14.26 269.542 14.26V12.26C266.964 12.26 264.482 12.6345 262.101 13.3864L262.703 15.2936ZM269.542 14.26C271.348 14.26 272.656 14.7603 273.587 15.6594L274.976 14.2206C273.588 12.8797 271.735 12.26 269.542 12.26V14.26ZM273.6 15.6719C274.49 16.5003 274.95 17.6993 274.844 19.4389L276.84 19.5611C276.973 17.3807 276.393 15.5397 274.963 14.2081L273.6 15.6719ZM276.663 20.0707C278.242 17.7979 279.861 16.3229 281.493 15.5421L280.63 13.7379C278.583 14.7171 276.721 16.4821 275.021 18.9293L276.663 20.0707ZM281.509 15.5344C283.203 14.6873 285.049 14.26 287.062 14.26V12.26C284.755 12.26 282.6 12.7527 280.615 13.7456L281.509 15.5344ZM287.062 14.26C289.284 14.26 290.973 14.9257 292.235 16.1871L293.649 14.7729C291.95 13.0743 289.72 12.26 287.062 12.26V14.26ZM292.244 16.1965C293.548 17.4662 294.222 19.1165 294.222 21.24H296.222C296.222 18.6435 295.375 16.4538 293.639 14.7635L292.244 16.1965ZM294.222 21.24C294.222 22.3703 294.04 23.4837 293.673 24.5838L295.571 25.2162C296.004 23.9163 296.222 22.5897 296.222 21.24H294.222ZM293.667 24.6042L290.007 36.4242L291.917 37.0158L295.577 25.1958L293.667 24.6042ZM332.351 15.42L331.767 16.2319L331.777 16.2386L332.351 15.42ZM335.531 23.7L334.561 23.4575L334.558 23.4679L334.556 23.4784L335.531 23.7ZM330.491 29.4L330.872 30.3247L330.879 30.3219L330.491 29.4ZM315.551 30.72L315.696 29.7305L314.573 29.5662L314.551 30.7008L315.551 30.72ZM317.231 35.1L317.818 34.2901L317.231 35.1ZM324.851 36.06L325.073 37.0351L325.094 37.0304L325.114 37.0248L324.851 36.06ZM328.211 35.04L328.519 35.9914L328.533 35.9868L328.547 35.9817L328.211 35.04ZM331.151 35.22H330.151V35.2343L330.152 35.2486L331.151 35.22ZM329.591 39.66L330.406 40.2393L330.413 40.2292L329.591 39.66ZM324.791 43.56L325.245 44.451L324.791 43.56ZM306.191 41.82L306.81 41.0348L306.191 41.82ZM302.411 27.84L301.431 27.6408L301.431 27.6439L302.411 27.84ZM308.951 16.74L309.545 17.5446L309.547 17.5434L308.951 16.74ZM315.971 27.12L314.992 26.916L314.796 27.857L315.729 28.0901L315.971 27.12ZM320.471 24.84L321.342 25.3313L320.471 24.84ZM321.731 19.62L322.731 19.5992L322.731 19.5917L322.73 19.5843L321.731 19.62ZM319.211 19.02L319.961 19.6816L319.97 19.671L319.979 19.6602L319.211 19.02ZM317.411 22.14L316.492 21.7461L316.487 21.7573L316.483 21.7686L317.411 22.14ZM321.311 13.96C326.33 13.96 329.747 14.7789 331.767 16.2318L332.935 14.6082C330.395 12.7811 326.453 11.96 321.311 11.96V13.96ZM331.777 16.2386C333.823 17.6744 334.771 19.444 334.771 21.6H336.771C336.771 18.716 335.44 16.3656 332.926 14.6014L331.777 16.2386ZM334.771 21.6C334.771 22.2903 334.698 22.9077 334.561 23.4575L336.501 23.9425C336.684 23.2123 336.771 22.4297 336.771 21.6H334.771ZM334.556 23.4784C334.036 25.767 332.603 27.4277 330.104 28.4781L330.879 30.3219C333.899 29.0523 335.826 26.913 336.506 23.9216L334.556 23.4784ZM330.11 28.4753C327.538 29.5343 324.454 30.08 320.831 30.08V32.08C324.648 32.08 328.004 31.5057 330.872 30.3247L330.11 28.4753ZM320.831 30.08C318.993 30.08 317.282 29.9627 315.696 29.7305L315.406 31.7095C317.1 31.9573 318.909 32.08 320.831 32.08V30.08ZM314.551 30.7008C314.508 32.9504 315.113 34.801 316.645 35.9099L317.818 34.2901C317.029 33.719 316.514 32.6495 316.551 30.7392L314.551 30.7008ZM316.645 35.9099C318.037 36.918 319.892 37.36 322.091 37.36V35.36C320.13 35.36 318.746 34.962 317.818 34.2901L316.645 35.9099ZM322.091 37.36C323.121 37.36 324.116 37.2527 325.073 37.0351L324.629 35.0849C323.827 35.2673 322.981 35.36 322.091 35.36V37.36ZM325.114 37.0248C326.015 36.7791 327.151 36.4339 328.519 35.9914L327.903 34.0886C326.551 34.5261 325.447 34.8609 324.588 35.0952L325.114 37.0248ZM328.547 35.9817C329.093 35.787 329.533 35.6471 329.876 35.5571C330.236 35.4622 330.424 35.44 330.491 35.44V33.44C330.158 33.44 329.766 33.5178 329.367 33.6229C328.949 33.7329 328.45 33.893 327.875 34.0983L328.547 35.9817ZM330.491 35.44C330.505 35.44 330.472 35.4422 330.413 35.4192C330.349 35.3937 330.279 35.3474 330.223 35.2809C330.117 35.1564 330.151 35.0771 330.151 35.22H332.151C332.151 34.8429 332.075 34.3736 331.749 33.9891C331.397 33.5726 330.913 33.44 330.491 33.44V35.44ZM330.152 35.2486C330.184 36.3715 329.77 37.6448 328.769 39.0908L330.413 40.2292C331.572 38.5552 332.199 36.8685 332.151 35.1914L330.152 35.2486ZM328.776 39.0808C327.812 40.4379 326.352 41.6425 324.337 42.669L325.245 44.451C327.47 43.3175 329.211 41.9221 330.406 40.2392L328.776 39.0808ZM324.337 42.669C322.39 43.6611 319.993 44.18 317.111 44.18V46.18C320.229 46.18 322.953 45.6189 325.245 44.451L324.337 42.669ZM317.111 44.18C312.843 44.18 309.437 43.1063 306.81 41.0348L305.572 42.6052C308.625 45.0137 312.499 46.18 317.111 46.18V44.18ZM306.81 41.0348C304.256 39.0202 302.931 36.0766 302.931 32.04H300.931C300.931 36.5634 302.446 40.1398 305.572 42.6052L306.81 41.0348ZM302.931 32.04C302.931 30.9245 303.08 29.5929 303.392 28.0361L301.431 27.6439C301.102 29.2871 300.931 30.7555 300.931 32.04H302.931ZM303.391 28.0392C304.352 23.3101 306.423 19.849 309.545 17.5446L308.357 15.9354C304.759 18.591 302.47 22.5299 301.431 27.6408L303.391 28.0392ZM309.547 17.5434C312.75 15.1689 316.653 13.96 321.311 13.96V11.96C316.289 11.96 311.952 13.271 308.356 15.9366L309.547 17.5434ZM315.729 28.0901C316.004 28.159 316.318 28.18 316.631 28.18V26.18C316.385 26.18 316.258 26.161 316.214 26.1499L315.729 28.0901ZM316.631 28.18C318.7 28.18 320.299 27.1801 321.342 25.3313L319.6 24.3487C318.883 25.6199 317.922 26.18 316.631 26.18V28.18ZM321.342 25.3313C322.316 23.6039 322.774 21.6849 322.731 19.5992L320.731 19.6408C320.768 21.3951 320.386 22.9561 319.6 24.3487L321.342 25.3313ZM322.73 19.5843C322.708 18.9657 322.609 18.3529 322.329 17.8639C322.008 17.3008 321.462 16.94 320.771 16.94V18.94C320.759 18.94 320.708 18.9352 320.649 18.8992C320.593 18.8654 320.58 18.8341 320.593 18.8561C320.608 18.8828 320.641 18.9539 320.671 19.0945C320.701 19.2331 320.723 19.4176 320.732 19.6557L322.73 19.5843ZM320.771 16.94C320.277 16.94 319.839 17.1405 319.482 17.3878C319.121 17.6375 318.776 17.9804 318.443 18.3798L319.979 19.6602C320.246 19.3396 320.461 19.1425 320.62 19.0322C320.783 18.9195 320.826 18.94 320.771 18.94V16.94ZM318.461 18.3584C317.759 19.154 317.109 20.3053 316.492 21.7461L318.33 22.5339C318.913 21.1747 319.463 20.246 319.961 19.6816L318.461 18.3584ZM316.483 21.7686C315.896 23.2362 315.401 24.9549 314.992 26.916L316.95 27.324C317.341 25.4451 317.807 23.8438 318.34 22.5114L316.483 21.7686Z" fill="black"/>
</svg>
